<svg width="14" height="15" viewBox="0 0 14 15" fill="none" xmlns="http://www.w3.org/2000/svg">
<g clip-path="url(#clip0_40_14380)">
<path d="M7 0.226562C3.13306 0.226562 0 3.35963 0 7.22656C0 11.0935 3.13306 14.2266 7 14.2266C10.8669 14.2266 14 11.0935 14 7.22656C14 3.35963 10.8669 0.226562 7 0.226562ZM9.25806 4.9685C9.75766 4.9685 10.1613 5.37213 10.1613 5.87172C10.1613 6.37132 9.75766 6.77495 9.25806 6.77495C8.75847 6.77495 8.35484 6.37132 8.35484 5.87172C8.35484 5.37213 8.75847 4.9685 9.25806 4.9685ZM4.74194 4.9685C5.24153 4.9685 5.64516 5.37213 5.64516 5.87172C5.64516 6.37132 5.24153 6.77495 4.74194 6.77495C4.24234 6.77495 3.83871 6.37132 3.83871 5.87172C3.83871 5.37213 4.24234 4.9685 4.74194 4.9685ZM10.2403 9.77253C9.43589 10.7379 8.25605 11.2911 7 11.2911C5.74395 11.2911 4.56411 10.7379 3.75968 9.77253C3.37581 9.31245 4.07016 8.73664 4.45403 9.1939C5.08629 9.95318 6.0121 10.385 7 10.385C7.9879 10.385 8.91371 9.95035 9.54597 9.1939C9.92419 8.73664 10.6214 9.31245 10.2403 9.77253Z" fill="white"/>
</g>
<defs>
<clipPath id="clip0_40_14380">
<rect width="14" height="14.4516" fill="white"/>
</clipPath>
</defs>
</svg>
