<svg width="20" height="20" viewBox="0 0 20 20" fill="none" xmlns="http://www.w3.org/2000/svg">
<path d="M15.8333 9.16732H10.8333V4.16732C10.8333 3.9463 10.7455 3.73434 10.5892 3.57806C10.4329 3.42178 10.2209 3.33398 9.99992 3.33398C9.7789 3.33398 9.56694 3.42178 9.41066 3.57806C9.25438 3.73434 9.16658 3.9463 9.16658 4.16732V9.16732H4.16659C3.94557 9.16732 3.73361 9.25512 3.57733 9.4114C3.42105 9.56768 3.33325 9.77964 3.33325 10.0007C3.33325 10.2217 3.42105 10.4336 3.57733 10.5899C3.73361 10.7462 3.94557 10.834 4.16659 10.834H9.16658V15.834C9.16658 16.055 9.25438 16.267 9.41066 16.4232C9.56694 16.5795 9.7789 16.6673 9.99992 16.6673C10.2209 16.6673 10.4329 16.5795 10.5892 16.4232C10.7455 16.267 10.8333 16.055 10.8333 15.834V10.834H15.8333C16.0543 10.834 16.2662 10.7462 16.4225 10.5899C16.5788 10.4336 16.6666 10.2217 16.6666 10.0007C16.6666 9.77964 16.5788 9.56768 16.4225 9.4114C16.2662 9.25512 16.0543 9.16732 15.8333 9.16732Z" fill="white"/>
</svg>
