<svg width="14" height="14" viewBox="0 0 14 14" fill="none" xmlns="http://www.w3.org/2000/svg">
<path d="M11.375 1.75H10.0625V1.3125C10.0625 1.19647 10.0164 1.08519 9.93436 1.00314C9.85231 0.921094 9.74103 0.875 9.625 0.875C9.50897 0.875 9.39769 0.921094 9.31564 1.00314C9.23359 1.08519 9.1875 1.19647 9.1875 1.3125V1.75H4.8125V1.3125C4.8125 1.19647 4.76641 1.08519 4.68436 1.00314C4.60231 0.921094 4.49103 0.875 4.375 0.875C4.25897 0.875 4.14769 0.921094 4.06564 1.00314C3.98359 1.08519 3.9375 1.19647 3.9375 1.3125V1.75H2.625C2.39294 1.75 2.17038 1.84219 2.00628 2.00628C1.84219 2.17038 1.75 2.39294 1.75 2.625V11.375C1.75 11.6071 1.84219 11.8296 2.00628 11.9937C2.17038 12.1578 2.39294 12.25 2.625 12.25H11.375C11.6071 12.25 11.8296 12.1578 11.9937 11.9937C12.1578 11.8296 12.25 11.6071 12.25 11.375V2.625C12.25 2.39294 12.1578 2.17038 11.9937 2.00628C11.8296 1.84219 11.6071 1.75 11.375 1.75ZM6.125 10.0625C6.125 10.1785 6.07891 10.2898 5.99686 10.3719C5.91481 10.4539 5.80353 10.5 5.6875 10.5C5.57147 10.5 5.46019 10.4539 5.37814 10.3719C5.29609 10.2898 5.25 10.1785 5.25 10.0625V7.27016L5.00828 7.39156C4.90443 7.44349 4.78421 7.45203 4.67406 7.41531C4.56391 7.3786 4.47286 7.29963 4.42094 7.19578C4.36901 7.09193 4.36047 6.97171 4.39719 6.86156C4.4339 6.75141 4.51287 6.66036 4.61672 6.60844L5.49172 6.17094C5.55844 6.13755 5.6326 6.12178 5.70714 6.12513C5.78168 6.12848 5.85412 6.15083 5.91758 6.19007C5.98104 6.22931 6.03342 6.28413 6.06972 6.34931C6.10602 6.4145 6.12505 6.48789 6.125 6.5625V10.0625ZM9.1875 9.625C9.30353 9.625 9.41481 9.67109 9.49686 9.75314C9.57891 9.83519 9.625 9.94647 9.625 10.0625C9.625 10.1785 9.57891 10.2898 9.49686 10.3719C9.41481 10.4539 9.30353 10.5 9.1875 10.5H7.4375C7.35625 10.5 7.27661 10.4774 7.20749 10.4347C7.13838 10.3919 7.08252 10.3308 7.04619 10.2582C7.00985 10.1855 6.99447 10.1041 7.00177 10.0232C7.00906 9.94229 7.03875 9.865 7.0875 9.8L8.66141 7.70164C8.69721 7.65398 8.72289 7.59951 8.73688 7.54157C8.75087 7.48362 8.75287 7.42343 8.74276 7.36469C8.73266 7.30595 8.71065 7.24989 8.6781 7.19995C8.64554 7.15002 8.60313 7.10726 8.55346 7.07431C8.50379 7.04136 8.44791 7.01891 8.38925 7.00833C8.33059 6.99775 8.27038 6.99927 8.21233 7.01279C8.15428 7.02632 8.0996 7.05156 8.05165 7.08698C8.00371 7.1224 7.96351 7.16724 7.93352 7.21875C7.90564 7.27009 7.86776 7.31533 7.82211 7.35179C7.77646 7.38826 7.72398 7.41521 7.66775 7.43106C7.61152 7.44692 7.55268 7.45134 7.49471 7.44409C7.43674 7.43683 7.38081 7.41804 7.33022 7.38882C7.27963 7.3596 7.2354 7.32054 7.20015 7.27395C7.1649 7.22736 7.13934 7.17418 7.12497 7.11755C7.11061 7.06092 7.10773 7.00199 7.11651 6.94423C7.12529 6.88647 7.14555 6.83105 7.17609 6.78125C7.32061 6.53116 7.5436 6.33572 7.81048 6.22524C8.07736 6.11476 8.37323 6.0954 8.65223 6.17017C8.93123 6.24493 9.17778 6.40965 9.35365 6.63878C9.52953 6.86791 9.6249 7.14865 9.625 7.4375C9.62593 7.72283 9.53291 8.00053 9.36031 8.22773L8.3125 9.625H9.1875ZM2.625 4.375V2.625H3.9375V3.0625C3.9375 3.17853 3.98359 3.28981 4.06564 3.37186C4.14769 3.45391 4.25897 3.5 4.375 3.5C4.49103 3.5 4.60231 3.45391 4.68436 3.37186C4.76641 3.28981 4.8125 3.17853 4.8125 3.0625V2.625H9.1875V3.0625C9.1875 3.17853 9.23359 3.28981 9.31564 3.37186C9.39769 3.45391 9.50897 3.5 9.625 3.5C9.74103 3.5 9.85231 3.45391 9.93436 3.37186C10.0164 3.28981 10.0625 3.17853 10.0625 3.0625V2.625H11.375V4.375H2.625Z" fill="white"/>
</svg>
