<svg width="14" height="14" viewBox="0 0 14 14" fill="none" xmlns="http://www.w3.org/2000/svg">
<path d="M7.00029 4.66602C8.08326 4.66602 9.12187 5.09622 9.88764 5.862C10.6534 6.62777 11.0836 7.66638 11.0836 8.74935C11.0836 9.83232 10.6534 10.8709 9.88764 11.6367C9.12187 12.4025 8.08326 12.8327 7.00029 12.8327C5.91732 12.8327 4.87871 12.4025 4.11294 11.6367C3.34716 10.8709 2.91696 9.83232 2.91696 8.74935C2.91696 7.66638 3.34716 6.62777 4.11294 5.862C4.87871 5.09622 5.91732 4.66602 7.00029 4.66602ZM7.00029 7.58268C6.69087 7.58268 6.39412 7.7056 6.17533 7.92439C5.95654 8.14318 5.83362 8.43993 5.83362 8.74935C5.83362 9.05877 5.95654 9.35551 6.17533 9.57431C6.39412 9.7931 6.69087 9.91602 7.00029 9.91602C7.30971 9.91602 7.60646 9.7931 7.82525 9.57431C8.04404 9.35551 8.16696 9.05877 8.16696 8.74935C8.16696 8.43993 8.04404 8.14318 7.82525 7.92439C7.60646 7.7056 7.30971 7.58268 7.00029 7.58268ZM5.49529 1.16602C5.68468 1.166 5.87123 1.21209 6.03882 1.3003C6.20641 1.38852 6.35001 1.51621 6.45721 1.67235L6.50796 1.75402L7.52004 3.52502C6.81491 3.45384 6.10266 3.52665 5.42652 3.73903C4.75037 3.95141 4.12441 4.29893 3.58662 4.76052L3.45129 4.88068L2.07637 2.47502C2.00347 2.34754 1.96382 2.20376 1.96109 2.05693C1.95835 1.91011 1.99262 1.76495 2.06072 1.63485C2.12882 1.50474 2.22858 1.39387 2.35079 1.31245C2.473 1.23102 2.61374 1.18167 2.76004 1.16893L2.83529 1.16602H5.49529ZM11.1641 1.16602C11.3174 1.16596 11.468 1.20618 11.6009 1.28263C11.7337 1.35908 11.8441 1.46909 11.9211 1.60164C11.9981 1.73419 12.0389 1.88464 12.0394 2.03791C12.04 2.19119 12.0002 2.34192 11.9242 2.47502L10.5493 4.88068C10.0596 4.4308 9.4889 4.07805 8.86754 3.84118L7.67462 1.75402C7.64753 1.70644 7.61712 1.66082 7.58362 1.61752C7.69266 1.47697 7.8324 1.36323 7.99214 1.28497C8.15189 1.20672 8.32741 1.16603 8.50529 1.16602H11.1641Z" fill="white"/>
</svg>
