<svg width="14" height="14" viewBox="0 0 14 14" fill="none" xmlns="http://www.w3.org/2000/svg">
<path d="M5.28467 1.12502C4.18217 1.11919 3.10884 2.18086 3.59884 3.49919H1.74967C1.44026 3.49919 1.14351 3.62211 0.924717 3.8409C0.705924 4.05969 0.583008 4.35644 0.583008 4.66586V5.83252C0.583008 5.98723 0.644466 6.13561 0.753862 6.245C0.863258 6.3544 1.01163 6.41586 1.16634 6.41586H6.41634V4.66586H7.58301V6.41586H12.833C12.9877 6.41586 13.1361 6.3544 13.2455 6.245C13.3549 6.13561 13.4163 5.98723 13.4163 5.83252V4.66586C13.4163 4.35644 13.2934 4.05969 13.0746 3.8409C12.8558 3.62211 12.5591 3.49919 12.2497 3.49919H10.4005C11.083 1.59169 8.51634 0.244191 7.33217 1.88919L6.99967 2.33252L6.66717 1.87752C6.29967 1.35836 5.79217 1.13086 5.28467 1.12502ZM5.24967 2.33252C5.76884 2.33252 6.03134 2.96252 5.66384 3.33002C5.29634 3.69752 4.66634 3.43502 4.66634 2.91586C4.66634 2.76115 4.7278 2.61277 4.8372 2.50338C4.94659 2.39398 5.09496 2.33252 5.24967 2.33252ZM8.74967 2.33252C9.26884 2.33252 9.53134 2.96252 9.16384 3.33002C8.79634 3.69752 8.16634 3.43502 8.16634 2.91586C8.16634 2.76115 8.2278 2.61277 8.3372 2.50338C8.44659 2.39398 8.59496 2.33252 8.74967 2.33252ZM1.16634 6.99919V11.6659C1.16634 11.9753 1.28926 12.272 1.50805 12.4908C1.72684 12.7096 2.02359 12.8325 2.33301 12.8325H11.6663C11.9758 12.8325 12.2725 12.7096 12.4913 12.4908C12.7101 12.272 12.833 11.9753 12.833 11.6659V6.99919H7.58301V11.6659H6.41634V6.99919H1.16634Z" fill="white"/>
</svg>
