<svg width="15" height="15" viewBox="0 0 15 15" fill="none" xmlns="http://www.w3.org/2000/svg">
<path d="M5.65929 8.97734L10.6815 3.95512C10.8 3.8366 10.9383 3.77734 11.0963 3.77734C11.2544 3.77734 11.3926 3.8366 11.5111 3.95512C11.6297 4.07364 11.6889 4.21448 11.6889 4.37764C11.6889 4.5408 11.6297 4.68144 11.5111 4.79957L6.07411 10.2514C5.95559 10.3699 5.81732 10.4292 5.65929 10.4292C5.50127 10.4292 5.363 10.3699 5.24448 10.2514L2.69633 7.70327C2.57781 7.58475 2.52092 7.44411 2.52566 7.28134C2.5304 7.11858 2.59223 6.97774 2.71115 6.85883C2.83006 6.73991 2.9709 6.68065 3.13366 6.68105C3.29643 6.68144 3.43707 6.7407 3.55559 6.85883L5.65929 8.97734Z" fill="#13BB7C"/>
</svg>
