<svg width="15" height="15" viewBox="0 0 15 15" fill="none" xmlns="http://www.w3.org/2000/svg">
<path fill-rule="evenodd" clip-rule="evenodd" d="M7.50358 8.91185L10.1977 11.6029C10.3407 11.7457 10.5345 11.8259 10.7367 11.8259C10.9389 11.8259 11.1328 11.7457 11.2758 11.6029C11.4187 11.4601 11.499 11.2664 11.499 11.0645C11.499 10.8625 11.4187 10.6689 11.2758 10.5261L8.58062 7.83502L11.2752 5.14398C11.346 5.07327 11.4021 4.98934 11.4404 4.89697C11.4787 4.8046 11.4984 4.70561 11.4983 4.60564C11.4983 4.50567 11.4786 4.40668 11.4403 4.31433C11.4019 4.22198 11.3458 4.13808 11.275 4.0674C11.2042 3.99673 11.1202 3.94068 11.0277 3.90244C10.9352 3.86421 10.8361 3.84454 10.736 3.84457C10.636 3.84459 10.5369 3.8643 10.4444 3.90258C10.3519 3.94086 10.2679 3.99695 10.1972 4.06766L7.50358 6.7587L4.80946 4.06766C4.7392 3.99492 4.65514 3.9369 4.56218 3.89696C4.46923 3.85702 4.36924 3.83598 4.26806 3.83505C4.16687 3.83413 4.06652 3.85334 3.97285 3.89157C3.87917 3.9298 3.79406 3.98628 3.72248 4.05771C3.65089 4.12915 3.59427 4.21411 3.55591 4.30764C3.51755 4.40117 3.49822 4.50139 3.49905 4.60246C3.49988 4.70353 3.52085 4.80342 3.56075 4.89631C3.60064 4.9892 3.65866 5.07322 3.73141 5.14347L6.42654 7.83502L3.73192 10.5266C3.65917 10.5968 3.60115 10.6808 3.56126 10.7737C3.52136 10.8666 3.50039 10.9665 3.49956 11.0676C3.49873 11.1687 3.51805 11.2689 3.55642 11.3624C3.59478 11.4559 3.6514 11.5409 3.72299 11.6123C3.79457 11.6838 3.87968 11.7402 3.97335 11.7785C4.06702 11.8167 4.16738 11.8359 4.26856 11.835C4.36975 11.8341 4.46974 11.813 4.56269 11.7731C4.65565 11.7331 4.73971 11.6751 4.80997 11.6024L7.50358 8.91185Z" fill="url(#paint0_radial_1211_5648)"/>
<defs>
<radialGradient id="paint0_radial_1211_5648" cx="0" cy="0" r="1" gradientUnits="userSpaceOnUse" gradientTransform="translate(6.16569 5.94613) rotate(52.275) scale(7.44527 4.89002)">
<stop stop-color="#F27689"/>
<stop offset="1" stop-color="#F94C67"/>
</radialGradient>
</defs>
</svg>
