<svg width="20" height="20" viewBox="0 0 20 20" fill="none" xmlns="http://www.w3.org/2000/svg">
<g clip-path="url(#clip0_51_2842)">
<path fill-rule="evenodd" clip-rule="evenodd" d="M1.885 5.33542C1.87518 6.30663 1.87268 7.27791 1.8775 8.24917C1.34083 8.00958 0.913333 7.54083 0.799583 6.88167C0.705417 6.33333 0.625 5.57583 0.625 4.58333C0.625 3.59125 0.705417 2.83333 0.8 2.285C0.965 1.32708 1.79333 0.770417 2.65583 0.737083C3.88625 0.69 6.26167 0.625 10 0.625C13.7383 0.625 16.1137 0.69 17.3442 0.7375C18.2067 0.770417 19.035 1.32708 19.2004 2.285C19.2946 2.83333 19.375 3.59125 19.375 4.58333C19.375 5.57542 19.2946 6.33333 19.2 6.88167C19.0867 7.54083 18.6592 8.00958 18.1225 8.24917C18.1279 7.15708 18.1238 6.18417 18.115 5.33542C18.0988 3.76208 16.9004 2.41708 15.2875 2.2825C13.9471 2.17083 12.1983 2.08417 10 2.08417C7.80167 2.08417 6.05292 2.17083 4.7125 2.2825C3.09958 2.41708 1.90125 3.76167 1.885 5.33542ZM10.4167 3.33542V18.54C10.2728 18.5411 10.126 18.5417 9.97625 18.5417C8.13042 18.5417 6.75375 18.4658 5.77625 18.3775C4.32 18.2458 3.32625 17.0358 3.27792 15.6442C3.12542 11.2513 3.10958 7.78292 3.13458 5.34833C3.14458 4.405 3.86125 3.60792 4.81625 3.52833C6.12042 3.42 7.83417 3.33417 9.99958 3.33417C10.1407 3.33417 10.2797 3.33458 10.4167 3.33542ZM5.625 13.75C5.625 14.1892 5.64 14.5312 5.65958 14.7908C5.69708 15.2933 6.12125 15.625 6.59708 15.625H7.15333C7.62875 15.625 8.05292 15.2933 8.09083 14.7908C8.11 14.5312 8.125 14.1892 8.125 13.75C8.125 13.3108 8.11 12.9688 8.09042 12.7092C8.05292 12.2067 7.62875 11.875 7.15292 11.875H6.59667C6.12125 11.875 5.69708 12.2067 5.65917 12.7092C5.63503 13.0556 5.62363 13.4028 5.625 13.75ZM14.2108 18.3762C13.9186 18.4023 13.6261 18.4247 13.3333 18.4433V3.40875C14.0237 3.44167 14.6392 3.48292 15.1833 3.52833C16.1387 3.60792 16.8554 4.405 16.8654 5.34833C16.8904 7.78042 16.8746 11.245 16.7225 15.6317C16.6742 17.0308 15.6717 18.245 14.2108 18.3762Z" fill="#8AB1FF"/>
</g>
<defs>
<clipPath id="clip0_51_2842">
<rect width="20" height="20" fill="white"/>
</clipPath>
</defs>
</svg>
