<svg width="20" height="20" viewBox="0 0 20 20" fill="none" xmlns="http://www.w3.org/2000/svg">
<path d="M12.0833 7.5C11.393 7.5 10.8333 6.94036 10.8333 6.25V3.75C10.8333 3.05964 11.393 2.5 12.0833 2.5H16.25C16.9404 2.5 17.5 3.05964 17.5 3.75V6.25C17.5 6.94036 16.9404 7.5 16.25 7.5H12.0833ZM3.75 10.8333C3.05965 10.8333 2.5 10.2737 2.5 9.58333V3.75C2.5 3.05964 3.05964 2.5 3.75 2.5H7.91667C8.60702 2.5 9.16667 3.05964 9.16667 3.75V9.58333C9.16667 10.2737 8.60702 10.8333 7.91667 10.8333H3.75ZM12.0833 17.5C11.393 17.5 10.8333 16.9404 10.8333 16.25V10.4167C10.8333 9.72631 11.393 9.16667 12.0833 9.16667H16.25C16.9404 9.16667 17.5 9.72631 17.5 10.4167V16.25C17.5 16.9404 16.9404 17.5 16.25 17.5H12.0833ZM3.75 17.5C3.05965 17.5 2.5 16.9404 2.5 16.25V13.75C2.5 13.0596 3.05964 12.5 3.75 12.5H7.91667C8.60702 12.5 9.16667 13.0596 9.16667 13.75V16.25C9.16667 16.9404 8.60702 17.5 7.91667 17.5H3.75Z" fill="#4D4D4D"/>
</svg>
