<svg width="20" height="20" viewBox="0 0 20 20" fill="none" xmlns="http://www.w3.org/2000/svg">
<path fill-rule="evenodd" clip-rule="evenodd" d="M13.0624 1.34961C12.8746 1.34961 12.6957 1.35141 12.5256 1.355C10.8221 1.38886 9.52106 2.50209 9.13779 4.04321C8.5629 4.04424 8.02931 4.05155 7.53702 4.06515C5.94857 4.10863 4.5656 4.66697 3.51086 5.58241H3.49739C2.75011 5.58241 2.09556 4.95288 2.09556 4.22137C2.09556 3.48987 2.75011 2.86034 3.49739 2.86034H3.50855C4.29508 2.86418 4.40437 3.2436 4.40437 3.34018C4.40437 3.49326 4.46518 3.64008 4.57342 3.74832C4.68167 3.85657 4.82848 3.91738 4.98157 3.91738C5.13465 3.91738 5.28146 3.85657 5.38971 3.74832C5.49795 3.64008 5.55877 3.49326 5.55877 3.34018C5.55877 2.3801 4.6795 1.70593 3.49739 1.70593H3.48315C2.1452 1.71363 0.941162 2.81724 0.941162 4.22137C0.941162 5.30497 1.65805 6.20925 2.60004 6.56943C1.79426 7.66264 1.3325 9.04369 1.32635 10.5675C1.32577 10.7073 1.32577 10.8471 1.32635 10.9869C1.3325 12.4888 1.78003 13.8583 2.57541 14.9519C2.398 15.3466 2.22611 15.7438 2.05978 16.1433C1.77772 16.8197 1.9578 17.6244 2.56925 18.0865C2.73626 18.2127 2.92712 18.3482 3.09951 18.4471C3.27536 18.5479 3.49508 18.646 3.69325 18.7276C4.39205 19.0162 5.16781 18.7738 5.61148 18.2019C5.7985 17.9607 6.02476 17.6644 6.26641 17.3377C6.67456 17.4264 7.0981 17.477 7.53702 17.4893C8.05189 17.5035 8.60985 17.5112 9.21437 17.5112C9.81889 17.5112 10.3769 17.5035 10.8917 17.4893C11.319 17.4781 11.7444 17.4273 12.1623 17.3377C12.404 17.6648 12.6302 17.9611 12.8173 18.2019C13.2609 18.7738 14.0367 19.0158 14.7355 18.7276C14.9391 18.6461 15.1375 18.5523 15.3296 18.4467C15.502 18.3482 15.6925 18.2127 15.8595 18.0865C16.4713 17.6244 16.651 16.8197 16.3693 16.1433C16.2308 15.8123 16.0538 15.3975 15.8533 14.9519C16.2293 14.4331 16.525 13.8606 16.7307 13.2538C16.8502 13.2625 16.968 13.2691 17.0839 13.2734C17.9035 13.3027 18.5323 12.677 18.5908 11.902C18.6193 11.5283 18.642 11.0296 18.642 10.3924C18.642 9.75519 18.6189 9.25649 18.5908 8.88285C18.5323 8.10747 17.9035 7.48217 17.0839 7.51142C16.8707 7.51911 16.6499 7.53489 16.4255 7.55759C15.8933 6.46091 15.068 5.55548 14.0244 4.94057C14.0205 3.79001 13.9236 3.00156 13.8204 2.48708C13.7823 2.28875 13.7322 2.09291 13.6704 1.90064C13.6455 1.82586 13.6169 1.75239 13.5845 1.68054L13.5815 1.674L13.5799 1.6713L13.5792 1.66976L13.5788 1.66861C13.5308 1.57272 13.4571 1.49209 13.3659 1.43575C13.2747 1.3794 13.1696 1.34958 13.0624 1.34961ZM12.6776 7.02541C13.0493 7.02541 13.351 7.3271 13.351 7.69881V8.08362C13.351 8.26221 13.28 8.43349 13.1537 8.55978C13.0275 8.68607 12.8562 8.75702 12.6776 8.75702C12.499 8.75702 12.3277 8.68607 12.2014 8.55978C12.0751 8.43349 12.0042 8.26221 12.0042 8.08362V7.69881C12.0042 7.3271 12.3059 7.02541 12.6776 7.02541ZM8.23428 6.64061C8.38737 6.63873 8.53343 6.5761 8.64034 6.46652C8.74725 6.35694 8.80625 6.20938 8.80436 6.05629C8.80248 5.90321 8.73985 5.75715 8.63027 5.65024C8.52069 5.54333 8.37313 5.48432 8.22005 5.48621C8.02303 5.48878 7.83383 5.49237 7.65246 5.49699C6.37955 5.5297 5.26978 6.00954 4.47632 6.80723C4.42133 6.86061 4.37753 6.92441 4.34745 6.99489C4.31738 7.06538 4.30165 7.14115 4.30117 7.21779C4.30069 7.29442 4.31547 7.37038 4.34466 7.44124C4.37385 7.5121 4.41686 7.57644 4.47118 7.6305C4.52549 7.68456 4.59003 7.72726 4.66103 7.75612C4.73202 7.78497 4.80805 7.7994 4.88468 7.79856C4.96132 7.79772 5.03701 7.78163 5.10736 7.75122C5.1777 7.72082 5.24129 7.67671 5.29441 7.62147C5.86584 7.04696 6.68739 6.67679 7.68248 6.651C7.8582 6.64639 8.04214 6.64292 8.23428 6.64061Z" fill="#4D4D4D"/>
</svg>
