<svg width="18" height="18" viewBox="0 0 18 18" fill="none" xmlns="http://www.w3.org/2000/svg">
<path d="M8.99988 9C8.55487 9 8.11986 8.86804 7.74984 8.62081C7.37983 8.37357 7.09145 8.02217 6.92115 7.61104C6.75085 7.1999 6.70629 6.74751 6.79311 6.31105C6.87993 5.87459 7.09422 5.47368 7.40889 5.15901C7.72356 4.84434 8.12447 4.63005 8.56092 4.54323C8.99738 4.45642 9.44978 4.50097 9.86092 4.67127C10.272 4.84157 10.6235 5.12996 10.8707 5.49997C11.1179 5.86998 11.2499 6.30499 11.2499 6.75C11.2499 7.34674 11.0128 7.91903 10.5909 8.34099C10.1689 8.76295 9.59661 9 8.99988 9ZM8.99988 6C8.85154 6 8.70654 6.04399 8.5832 6.1264C8.45986 6.20881 8.36373 6.32594 8.30697 6.46299C8.2502 6.60003 8.23535 6.75083 8.26429 6.89632C8.29323 7.0418 8.36466 7.17544 8.46955 7.28033C8.57444 7.38522 8.70807 7.45665 8.85356 7.48559C8.99905 7.51453 9.14985 7.49968 9.28689 7.44291C9.42393 7.38614 9.54107 7.29002 9.62348 7.16668C9.70589 7.04334 9.74988 6.89834 9.74988 6.75C9.74988 6.55109 9.67086 6.36032 9.53021 6.21967C9.38956 6.07902 9.19879 6 8.99988 6ZM8.46738 10.7175C8.53871 10.6492 8.62281 10.5957 8.71488 10.56C8.80465 10.5203 8.90172 10.4998 8.99988 10.4998C9.09803 10.4998 9.1951 10.5203 9.28488 10.56C9.37694 10.5957 9.46105 10.6492 9.53238 10.7175L11.2499 12.405C11.3951 12.5502 11.4767 12.7471 11.4767 12.9525C11.4767 13.1579 11.3951 13.3548 11.2499 13.5C11.1047 13.6452 10.9077 13.7268 10.7024 13.7268C10.497 13.7268 10.3001 13.6452 10.1549 13.5L9.74988 13.0575V15.75C9.74988 15.9489 9.67086 16.1397 9.53021 16.2803C9.38956 16.421 9.19879 16.5 8.99988 16.5C8.80097 16.5 8.6102 16.421 8.46955 16.2803C8.3289 16.1397 8.24988 15.9489 8.24988 15.75V13.0575L7.84488 13.5C7.69967 13.6452 7.50273 13.7268 7.29738 13.7268C7.09203 13.7268 6.89508 13.6452 6.74988 13.5C6.60467 13.3548 6.5231 13.1579 6.5231 12.9525C6.5231 12.7471 6.60467 12.5502 6.74988 12.405L8.46738 10.7175ZM14.2499 6.75C14.2499 6.89834 14.2059 7.04334 14.1235 7.16668C14.0411 7.29002 13.9239 7.38614 13.7869 7.44291C13.6498 7.49968 13.499 7.51453 13.3536 7.48559C13.2081 7.45665 13.0744 7.38522 12.9695 7.28033C12.8647 7.17544 12.7932 7.0418 12.7643 6.89632C12.7353 6.75083 12.7502 6.60003 12.807 6.46299C12.8637 6.32594 12.9599 6.20881 13.0832 6.1264C13.2065 6.04399 13.3515 6 13.4999 6C13.6988 6 13.8896 6.07902 14.0302 6.21967C14.1709 6.36032 14.2499 6.55109 14.2499 6.75ZM14.9999 12H12.7499C12.551 12 12.3602 11.921 12.2195 11.7803C12.0789 11.6397 11.9999 11.4489 11.9999 11.25C11.9999 11.0511 12.0789 10.8603 12.2195 10.7197C12.3602 10.579 12.551 10.5 12.7499 10.5H14.9999C15.1988 10.5 15.3896 10.421 15.5302 10.2803C15.6709 10.1397 15.7499 9.94891 15.7499 9.75V3.75C15.7499 3.55109 15.6709 3.36032 15.5302 3.21967C15.3896 3.07902 15.1988 3 14.9999 3H2.99988C2.80097 3 2.6102 3.07902 2.46955 3.21967C2.3289 3.36032 2.24988 3.55109 2.24988 3.75V9.75C2.24988 9.94891 2.3289 10.1397 2.46955 10.2803C2.6102 10.421 2.80097 10.5 2.99988 10.5H5.24988C5.44879 10.5 5.63956 10.579 5.78021 10.7197C5.92086 10.8603 5.99988 11.0511 5.99988 11.25C5.99988 11.4489 5.92086 11.6397 5.78021 11.7803C5.63956 11.921 5.44879 12 5.24988 12H2.99988C2.40314 12 1.83084 11.7629 1.40889 11.341C0.986931 10.919 0.749878 10.3467 0.749878 9.75V3.75C0.749878 3.15326 0.986931 2.58097 1.40889 2.15901C1.83084 1.73705 2.40314 1.5 2.99988 1.5H14.9999C15.5966 1.5 16.1689 1.73705 16.5909 2.15901C17.0128 2.58097 17.2499 3.15326 17.2499 3.75V9.75C17.2499 10.3467 17.0128 10.919 16.5909 11.341C16.1689 11.7629 15.5966 12 14.9999 12ZM3.74988 6.75C3.74988 6.60166 3.79386 6.45666 3.87628 6.33332C3.95869 6.20999 4.07582 6.11386 4.21287 6.05709C4.34991 6.00033 4.50071 5.98547 4.6462 6.01441C4.79168 6.04335 4.92532 6.11478 5.03021 6.21967C5.1351 6.32456 5.20653 6.4582 5.23547 6.60368C5.26441 6.74917 5.24955 6.89997 5.19279 7.03701C5.13602 7.17406 5.03989 7.29119 4.91656 7.3736C4.79322 7.45601 4.64821 7.5 4.49988 7.5C4.30097 7.5 4.1102 7.42098 3.96955 7.28033C3.8289 7.13968 3.74988 6.94891 3.74988 6.75Z" fill="white"/>
</svg>
