<svg width="14" height="14" viewBox="0 0 14 14" fill="none" xmlns="http://www.w3.org/2000/svg">
<path d="M8.74967 1.75C8.90438 1.75 9.05276 1.81146 9.16215 1.92085C9.27155 2.03025 9.33301 2.17862 9.33301 2.33333V3.5H11.6663C11.8211 3.5 11.9694 3.56146 12.0788 3.67085C12.1882 3.78025 12.2497 3.92862 12.2497 4.08333V11.0833H13.4163V12.25H0.583008V11.0833H1.74967V4.08333C1.74967 3.92862 1.81113 3.78025 1.92053 3.67085C2.02992 3.56146 2.1783 3.5 2.33301 3.5H4.66634V2.33333C4.66634 2.17862 4.7278 2.03025 4.8372 1.92085C4.94659 1.81146 5.09496 1.75 5.24967 1.75H8.74967ZM5.83301 4.66667H4.66634V11.0833H5.83301V4.66667ZM9.33301 4.66667H8.16634V11.0833H9.33301V4.66667ZM8.16634 2.91667H5.83301V3.5H8.16634V2.91667Z" fill="white"/>
</svg>
