<svg width="24" height="24" viewBox="0 0 24 24" fill="none" xmlns="http://www.w3.org/2000/svg">
<path d="M11.7002 18.4502H11.7139C11.9392 18.4503 12.1551 18.5399 12.3145 18.6992C12.4738 18.8586 12.5634 19.0745 12.5635 19.2998C12.5635 19.5252 12.4739 19.742 12.3145 19.9014C12.1551 20.0605 11.9391 20.1503 11.7139 20.1504H11.7002C11.4748 20.1504 11.258 20.0608 11.0986 19.9014C10.9392 19.742 10.8496 19.5252 10.8496 19.2998C10.8497 19.0746 10.9395 18.8586 11.0986 18.6992C11.258 18.5398 11.4748 18.4502 11.7002 18.4502ZM11.7002 4.84961C11.9254 4.84966 12.1414 4.93946 12.3008 5.09863C12.4602 5.25804 12.5498 5.47476 12.5498 5.7002V14.2002C12.5498 14.4256 12.4601 14.6414 12.3008 14.8008C12.1414 14.9601 11.9256 15.0498 11.7002 15.0498C11.4748 15.0498 11.258 14.9602 11.0986 14.8008C10.9395 14.6414 10.8497 14.4254 10.8496 14.2002V5.7002C10.8496 5.47476 10.9392 5.25804 11.0986 5.09863C11.258 4.93923 11.4748 4.84961 11.7002 4.84961Z" fill="#D9D9D9" stroke="white" stroke-width="1.7"/>
</svg>
