<svg width="20" height="20" viewBox="0 0 20 20" fill="none" xmlns="http://www.w3.org/2000/svg">
<path d="M14.9998 8.33316C14.9998 8.11215 14.912 7.90019 14.7557 7.74391C14.5994 7.58763 14.3875 7.49983 14.1665 7.49983H4.50812L6.42479 5.5915C6.58171 5.43458 6.66987 5.22175 6.66987 4.99983C6.66987 4.77791 6.58171 4.56508 6.42479 4.40816C6.26787 4.25124 6.05504 4.16309 5.83312 4.16309C5.61121 4.16309 5.39838 4.25124 5.24146 4.40816L1.90812 7.7415C1.79249 7.85868 1.71416 8.00749 1.68302 8.16915C1.65187 8.33081 1.66931 8.49807 1.73312 8.64983C1.79564 8.80201 1.90181 8.93228 2.03824 9.02423C2.17467 9.11617 2.33527 9.16567 2.49979 9.1665H14.1665C14.3875 9.1665 14.5994 9.0787 14.7557 8.92242C14.912 8.76614 14.9998 8.55418 14.9998 8.33316ZM18.2665 11.3498C18.2039 11.1976 18.0978 11.0674 17.9613 10.9754C17.8249 10.8835 17.6643 10.834 17.4998 10.8332H5.83312C5.61211 10.8332 5.40015 10.921 5.24387 11.0772C5.08759 11.2335 4.99979 11.4455 4.99979 11.6665C4.99979 11.8875 5.08759 12.0995 5.24387 12.2558C5.40015 12.412 5.61211 12.4998 5.83312 12.4998H15.4915L13.5748 14.4082C13.4967 14.4856 13.4347 14.5778 13.3924 14.6793C13.3501 14.7809 13.3283 14.8898 13.3283 14.9998C13.3283 15.1098 13.3501 15.2188 13.3924 15.3203C13.4347 15.4219 13.4967 15.514 13.5748 15.5915C13.6523 15.6696 13.7444 15.7316 13.846 15.7739C13.9475 15.8162 14.0564 15.838 14.1665 15.838C14.2765 15.838 14.3854 15.8162 14.4869 15.7739C14.5885 15.7316 14.6807 15.6696 14.7581 15.5915L18.0915 12.2582C18.2071 12.141 18.2854 11.9922 18.3166 11.8305C18.3477 11.6688 18.3303 11.5016 18.2665 11.3498Z" fill="white"/>
</svg>
