<svg width="20" height="20" viewBox="0 0 20 20" fill="none" xmlns="http://www.w3.org/2000/svg">
<g opacity="0.7">
<mask id="mask0_12_85824" style="mask-type:alpha" maskUnits="userSpaceOnUse" x="0" y="0" width="20" height="20">
<rect width="20" height="20" fill="#D9D9D9"/>
</mask>
<g mask="url(#mask0_12_85824)">
<path d="M3.33301 11.6667C3.33301 10.2083 3.68023 8.90972 4.37467 7.77083C5.06912 6.63194 5.83301 5.67361 6.66634 4.89583C7.49967 4.11806 8.26356 3.52431 8.95801 3.11458C9.20811 2.96702 9.33316 2.89324 9.43394 2.87988C9.65689 2.85031 9.87215 2.97324 9.95997 3.18028C9.99967 3.27388 9.99967 3.41907 9.99967 3.70946V5.25C9.99967 5.76389 10.1733 6.17014 10.5205 6.46875C10.8677 6.76736 11.2566 6.91667 11.6872 6.91667C11.9233 6.91667 12.149 6.86806 12.3643 6.77083C12.5795 6.67361 12.7775 6.51389 12.958 6.29167C13.0531 6.17539 13.1007 6.11725 13.1614 6.07625C13.2828 5.99421 13.4622 5.96994 13.6011 6.01677C13.6705 6.04017 13.7239 6.07802 13.8309 6.15373C14.6039 6.7011 15.2435 7.40333 15.7497 8.26042C16.3608 9.29514 16.6663 10.4306 16.6663 11.6667C16.6663 12.8889 16.3677 14.0035 15.7705 15.0104C15.3916 15.6492 14.9373 16.2027 14.4076 16.671C14.1981 16.8562 13.88 16.5673 13.9684 16.3021C14.1004 15.9063 14.1663 15.4861 14.1663 15.0417C14.1663 14.4861 14.0622 13.9618 13.8538 13.4688C13.6455 12.9757 13.3469 12.5347 12.958 12.1458L10.7017 9.93716C10.3702 9.61274 10.2045 9.45053 10 9.45089C9.79553 9.45125 9.63039 9.61405 9.30011 9.93964L7.06217 12.1458C6.6594 12.5486 6.35384 12.9931 6.14551 13.4792C5.93717 13.9653 5.83301 14.4861 5.83301 15.0417C5.83301 15.4861 5.89898 15.9063 6.03092 16.3021C6.11933 16.5673 5.80125 16.8562 5.59179 16.671C5.06202 16.2027 4.6077 15.6492 4.22884 15.0104C3.63162 14.0035 3.33301 12.8889 3.33301 11.6667ZM9.30104 12.2655C9.63104 11.9433 9.79605 11.7822 9.99967 11.7822C10.2033 11.7822 10.3683 11.9433 10.6983 12.2655L11.7705 13.3125C12.0066 13.5486 12.1872 13.8125 12.3122 14.1042C12.4372 14.3958 12.4997 14.7083 12.4997 15.0417C12.4997 15.7222 12.2566 16.3021 11.7705 16.7813C11.2844 17.2604 10.6941 17.5 9.99967 17.5C9.30523 17.5 8.71495 17.2604 8.22884 16.7813C7.74273 16.3021 7.49967 15.7222 7.49967 15.0417C7.49967 14.7222 7.56217 14.4132 7.68717 14.1146C7.81217 13.816 7.99273 13.5486 8.22884 13.3125L9.30104 12.2655Z" fill="white"/>
</g>
</g>
</svg>
