<svg width="14" height="14" viewBox="0 0 14 14" fill="none" xmlns="http://www.w3.org/2000/svg">
<g clip-path="url(#clip0_84_8473)">
<path d="M6.33301 10.5488H7.66634V6.54883H6.33301V10.5488ZM6.99968 5.21549C7.18856 5.21549 7.34701 5.15149 7.47501 5.02349C7.60301 4.89549 7.66679 4.73727 7.66634 4.54883C7.6659 4.36038 7.6019 4.20216 7.47434 4.07416C7.34679 3.94616 7.18856 3.88216 6.99968 3.88216C6.81079 3.88216 6.65256 3.94616 6.52501 4.07416C6.39745 4.20216 6.33345 4.36038 6.33301 4.54883C6.33256 4.73727 6.39656 4.89572 6.52501 5.02416C6.65345 5.15261 6.81168 5.21638 6.99968 5.21549ZM6.99968 13.8822C6.07745 13.8822 5.21079 13.707 4.39968 13.3568C3.58856 13.0066 2.88301 12.5317 2.28301 11.9322C1.68301 11.3326 1.20812 10.627 0.858342 9.81549C0.508564 9.00394 0.333453 8.13727 0.333009 7.21549C0.332564 6.29372 0.507675 5.42705 0.858342 4.61549C1.20901 3.80394 1.6839 3.09838 2.28301 2.49883C2.88212 1.89927 3.58768 1.42438 4.39968 1.07416C5.21168 0.723939 6.07834 0.548828 6.99968 0.548828C7.92101 0.548828 8.78768 0.723939 9.59968 1.07416C10.4117 1.42438 11.1172 1.89927 11.7163 2.49883C12.3155 3.09838 12.7906 3.80394 13.1417 4.61549C13.4928 5.42705 13.6677 6.29372 13.6663 7.21549C13.665 8.13727 13.4899 9.00394 13.141 9.81549C12.7921 10.627 12.3172 11.3326 11.7163 11.9322C11.1155 12.5317 10.4099 13.0068 9.59968 13.3575C8.78945 13.7082 7.92279 13.883 6.99968 13.8822Z" fill="url(#paint0_linear_84_8473)"/>
</g>
<defs>
<linearGradient id="paint0_linear_84_8473" x1="0.333008" y1="7.2155" x2="13.6664" y2="7.2155" gradientUnits="userSpaceOnUse">
<stop stop-color="white"/>
<stop offset="1" stop-color="#D6D6D6"/>
</linearGradient>
<clipPath id="clip0_84_8473">
<rect width="14" height="14" fill="white"/>
</clipPath>
</defs>
</svg>
