<svg width="14" height="14" viewBox="0 0 14 14" fill="none" xmlns="http://www.w3.org/2000/svg">
<g filter="url(#filter0_ii_1211_37354)">
<path d="M6.99935 9.91699C7.16463 9.91699 7.30327 9.86099 7.41527 9.74899C7.52727 9.63699 7.58307 9.49855 7.58268 9.33366V7.00033C7.58268 6.83505 7.52668 6.6966 7.41468 6.58499C7.30268 6.47338 7.16424 6.41738 6.99935 6.41699C6.83446 6.4166 6.69602 6.4726 6.58402 6.58499C6.47202 6.69738 6.41602 6.83583 6.41602 7.00033V9.33366C6.41602 9.49894 6.47202 9.63758 6.58402 9.74958C6.69602 9.86158 6.83446 9.91738 6.99935 9.91699ZM6.99935 5.25033C7.16463 5.25033 7.30327 5.19433 7.41527 5.08233C7.52727 4.97033 7.58307 4.83188 7.58268 4.66699C7.58229 4.5021 7.52629 4.36366 7.41468 4.25166C7.30307 4.13966 7.16463 4.08366 6.99935 4.08366C6.83407 4.08366 6.69563 4.13966 6.58402 4.25166C6.47241 4.36366 6.41641 4.5021 6.41602 4.66699C6.41563 4.83188 6.47163 4.97052 6.58402 5.08291C6.69641 5.1953 6.83485 5.2511 6.99935 5.25033ZM6.99935 12.8337C6.19241 12.8337 5.43407 12.6804 4.72435 12.374C4.01463 12.0675 3.39727 11.652 2.87227 11.1274C2.34727 10.6028 1.93174 9.98544 1.62568 9.27533C1.31963 8.56521 1.16641 7.80688 1.16602 7.00033C1.16563 6.19377 1.31885 5.43544 1.62568 4.72533C1.93252 4.01521 2.34804 3.39785 2.87227 2.87324C3.39649 2.34863 4.01385 1.9331 4.72435 1.62666C5.43485 1.32021 6.19318 1.16699 6.99935 1.16699C7.80552 1.16699 8.56385 1.32021 9.27435 1.62666C9.98485 1.9331 10.6022 2.34863 11.1264 2.87324C11.6507 3.39785 12.0664 4.01521 12.3736 4.72533C12.6808 5.43544 12.8339 6.19377 12.8327 7.00033C12.8315 7.80688 12.6783 8.56521 12.373 9.27533C12.0677 9.98544 11.6522 10.6028 11.1264 11.1274C10.6007 11.652 9.98329 12.0677 9.27435 12.3746C8.56541 12.6814 7.80707 12.8344 6.99935 12.8337Z" fill="url(#paint0_radial_1211_37354)"/>
<path d="M6.99935 9.91699C7.16463 9.91699 7.30327 9.86099 7.41527 9.74899C7.52727 9.63699 7.58307 9.49855 7.58268 9.33366V7.00033C7.58268 6.83505 7.52668 6.6966 7.41468 6.58499C7.30268 6.47338 7.16424 6.41738 6.99935 6.41699C6.83446 6.4166 6.69602 6.4726 6.58402 6.58499C6.47202 6.69738 6.41602 6.83583 6.41602 7.00033V9.33366C6.41602 9.49894 6.47202 9.63758 6.58402 9.74958C6.69602 9.86158 6.83446 9.91738 6.99935 9.91699Z" fill="white"/>
<path d="M6.99935 5.25033C7.16463 5.25033 7.30327 5.19433 7.41527 5.08233C7.52727 4.97033 7.58307 4.83188 7.58268 4.66699C7.58229 4.5021 7.52629 4.36366 7.41468 4.25166C7.30307 4.13966 7.16463 4.08366 6.99935 4.08366C6.83407 4.08366 6.69563 4.13966 6.58402 4.25166C6.47241 4.36366 6.41641 4.5021 6.41602 4.66699C6.41563 4.83188 6.47163 4.97052 6.58402 5.08291C6.69641 5.1953 6.83485 5.2511 6.99935 5.25033Z" fill="white"/>
</g>
<defs>
<filter id="filter0_ii_1211_37354" x="0.582682" y="0.583659" width="12.8337" height="12.8333" filterUnits="userSpaceOnUse" color-interpolation-filters="sRGB">
<feFlood flood-opacity="0" result="BackgroundImageFix"/>
<feBlend mode="normal" in="SourceGraphic" in2="BackgroundImageFix" result="shape"/>
<feColorMatrix in="SourceAlpha" type="matrix" values="0 0 0 0 0 0 0 0 0 0 0 0 0 0 0 0 0 0 127 0" result="hardAlpha"/>
<feOffset dx="-0.583333" dy="-0.583333"/>
<feGaussianBlur stdDeviation="0.291667"/>
<feComposite in2="hardAlpha" operator="arithmetic" k2="-1" k3="1"/>
<feColorMatrix type="matrix" values="0 0 0 0 0 0 0 0 0 0 0 0 0 0 0 0 0 0 0.25 0"/>
<feBlend mode="normal" in2="shape" result="effect1_innerShadow_1211_37354"/>
<feColorMatrix in="SourceAlpha" type="matrix" values="0 0 0 0 0 0 0 0 0 0 0 0 0 0 0 0 0 0 127 0" result="hardAlpha"/>
<feOffset dx="0.583333" dy="0.583333"/>
<feGaussianBlur stdDeviation="0.291667"/>
<feComposite in2="hardAlpha" operator="arithmetic" k2="-1" k3="1"/>
<feColorMatrix type="matrix" values="0 0 0 0 1 0 0 0 0 1 0 0 0 0 1 0 0 0 0.25 0"/>
<feBlend mode="normal" in2="effect1_innerShadow_1211_37354" result="effect2_innerShadow_1211_37354"/>
</filter>
<radialGradient id="paint0_radial_1211_37354" cx="0" cy="0" r="1" gradientUnits="userSpaceOnUse" gradientTransform="translate(5.05491 4.2457) rotate(52.275) scale(10.8577 7.13128)">
<stop stop-color="#A4A4A4"/>
<stop offset="1" stop-color="#888888"/>
</radialGradient>
</defs>
</svg>
