<svg width="40" height="40" viewBox="0 0 40 40" fill="none" xmlns="http://www.w3.org/2000/svg">
<g clip-path="url(#clip0_268_3200)">
<path fill-rule="evenodd" clip-rule="evenodd" d="M10.4763 5.71484C9.21332 5.71484 8.00212 6.21654 7.10909 7.10957C6.21605 8.0026 5.71436 9.21381 5.71436 10.4767V29.5244C5.71436 30.7873 6.21605 31.9985 7.10909 32.8915C8.00212 33.7846 9.21332 34.2863 10.4763 34.2863H29.5239C30.7868 34.2863 31.998 33.7846 32.8911 32.8915C33.7841 31.9985 34.2858 30.7873 34.2858 29.5244V10.4767C34.2858 9.21381 33.7841 8.0026 32.8911 7.10957C31.998 6.21654 30.7868 5.71484 29.5239 5.71484H10.4763ZM16.8255 13.6514C16.8255 13.2304 16.9927 12.8266 17.2904 12.529C17.5881 12.2313 17.9918 12.0641 18.4128 12.0641H27.9366C28.3576 12.0641 28.7613 12.2313 29.059 12.529C29.3566 12.8266 29.5239 13.2304 29.5239 13.6514C29.5239 14.0723 29.3566 14.4761 29.059 14.7737C28.7613 15.0714 28.3576 15.2387 27.9366 15.2387H18.4128C17.9918 15.2387 17.5881 15.0714 17.2904 14.7737C16.9927 14.4761 16.8255 14.0723 16.8255 13.6514ZM16.8255 20.0006C16.8255 19.5796 16.9927 19.1758 17.2904 18.8782C17.5881 18.5805 17.9918 18.4133 18.4128 18.4133H27.9366C28.3576 18.4133 28.7613 18.5805 29.059 18.8782C29.3566 19.1758 29.5239 19.5796 29.5239 20.0006C29.5239 20.4215 29.3566 20.8253 29.059 21.1229C28.7613 21.4206 28.3576 21.5879 27.9366 21.5879H18.4128C17.9918 21.5879 17.5881 21.4206 17.2904 21.1229C16.9927 20.8253 16.8255 20.4215 16.8255 20.0006ZM16.8255 26.3498C16.8255 25.9288 16.9927 25.5251 17.2904 25.2274C17.5881 24.9297 17.9918 24.7625 18.4128 24.7625H27.9366C28.3576 24.7625 28.7613 24.9297 29.059 25.2274C29.3566 25.5251 29.5239 25.9288 29.5239 26.3498C29.5239 26.7707 29.3566 27.1745 29.059 27.4722C28.7613 27.7698 28.3576 27.9371 27.9366 27.9371H18.4128C17.9918 27.9371 17.5881 27.7698 17.2904 27.4722C16.9927 27.1745 16.8255 26.7707 16.8255 26.3498ZM12.0636 12.0641C11.6426 12.0641 11.2388 12.2313 10.9412 12.529C10.6435 12.8266 10.4763 13.2304 10.4763 13.6514C10.4763 14.0723 10.6435 14.4761 10.9412 14.7737C11.2388 15.0714 11.6426 15.2387 12.0636 15.2387C12.4845 15.2387 12.8899 15.0714 13.1875 14.7737C13.4852 14.4761 13.6525 14.0723 13.6525 13.6514C13.6525 13.2304 13.4852 12.8266 13.1875 12.529C12.8899 12.2313 12.4845 12.0641 12.0636 12.0641ZM10.4763 20.0006C10.4763 19.5796 10.6435 19.1758 10.9412 18.8782C11.2388 18.5805 11.6426 18.4133 12.0636 18.4133C12.4845 18.4133 12.8899 18.5805 13.1875 18.8782C13.4852 19.1758 13.6525 19.5796 13.6525 20.0006C13.6525 20.4215 13.4852 20.8253 13.1875 21.1229C12.8899 21.4206 12.4861 21.5879 12.0651 21.5879C11.6442 21.5879 11.2388 21.4206 10.9412 21.1229C10.6435 20.8253 10.4763 20.4215 10.4763 20.0006ZM12.0636 24.7625C11.6426 24.7625 11.2388 24.9297 10.9412 25.2274C10.6435 25.5251 10.4763 25.9288 10.4763 26.3498C10.4763 26.7707 10.6435 27.1745 10.9412 27.4722C11.2388 27.7698 11.6426 27.9371 12.0636 27.9371C12.4845 27.9371 12.8899 27.7698 13.1875 27.4722C13.4852 27.1745 13.6525 26.7707 13.6525 26.3498C13.6525 25.9288 13.4852 25.5251 13.1875 25.2274C12.8899 24.9297 12.4845 24.7625 12.0636 24.7625Z" fill="white" fill-opacity="0.4"/>
<path d="M3.1499 4.16406L35.7407 36.7549" stroke="#6E6E6F" stroke-width="2.6425" stroke-linecap="round"/>
<path d="M4.91162 2.40234L37.5024 34.9932" stroke="#0E0E0F" stroke-width="2.6425" stroke-linecap="round"/>
</g>
<defs>
<clipPath id="clip0_268_3200">
<rect width="40" height="40" fill="white"/>
</clipPath>
</defs>
</svg>
