<svg width="40" height="40" viewBox="0 0 40 40" fill="none" xmlns="http://www.w3.org/2000/svg">
<g clip-path="url(#clip0_268_3180)">
<path fill-rule="evenodd" clip-rule="evenodd" d="M25.1363 5.38867C24.8188 5.38867 24.5162 5.39171 24.2285 5.39778C21.3475 5.45505 19.1473 7.33774 18.4991 9.94409C17.5268 9.94582 16.6244 9.95819 15.7919 9.98118C13.1055 10.0547 10.7666 10.999 8.98283 12.5472H8.96005C7.69625 12.5472 6.58928 11.4825 6.58928 10.2454C6.58928 9.00828 7.69625 7.94361 8.96005 7.94361H8.97893C10.3091 7.95012 10.4939 8.59178 10.4939 8.75512C10.4939 9.01402 10.5968 9.26231 10.7798 9.44537C10.9629 9.62844 11.2112 9.73129 11.4701 9.73129C11.729 9.73129 11.9773 9.62844 12.1603 9.44537C12.3434 9.26231 12.4462 9.01402 12.4462 8.75512C12.4462 7.13144 10.9592 5.99129 8.96005 5.99129H8.93597C6.67323 6.0043 4.63696 7.87072 4.63696 10.2454C4.63696 12.078 5.84935 13.6073 7.44245 14.2164C6.07973 16.0653 5.2988 18.4009 5.28839 20.978C5.2874 21.2144 5.2874 21.4509 5.28839 21.6873C5.2988 24.2273 6.05565 26.5434 7.4008 28.3929C7.10077 29.0604 6.81006 29.7321 6.52876 30.4077C6.05175 31.5517 6.35631 32.9125 7.39039 33.6941C7.67282 33.9075 7.99561 34.1366 8.28715 34.3039C8.58456 34.4744 8.95615 34.6403 9.2913 34.7783C10.4731 35.2663 11.7851 34.8564 12.5354 33.8893C12.8517 33.4813 13.2343 32.9802 13.643 32.4277C14.3333 32.5778 15.0496 32.6633 15.7919 32.6841C16.6626 32.7082 17.6062 32.7212 18.6286 32.7212C19.651 32.7212 20.5946 32.7082 21.4653 32.6841C22.188 32.6651 22.9073 32.5793 23.6142 32.4277C24.0229 32.9808 24.4055 33.4819 24.7218 33.8893C25.4721 34.8564 26.7841 35.2657 27.9659 34.7783C28.3102 34.6405 28.6457 34.4819 28.9707 34.3032C29.2622 34.1366 29.5844 33.9075 29.8668 33.6941C30.9015 32.9125 31.2055 31.5517 30.7291 30.4077C30.4948 29.848 30.1955 29.1465 29.8564 28.3929C30.4922 27.5154 30.9924 26.5473 31.3402 25.521C31.5423 25.5358 31.7415 25.5468 31.9376 25.5542C33.3237 25.6037 34.3871 24.5455 34.486 23.2348C34.5342 22.6029 34.5726 21.7595 34.5726 20.6819C34.5726 19.6042 34.5335 18.7608 34.486 18.1289C34.3871 16.8176 33.3237 15.7601 31.9376 15.8095C31.577 15.8225 31.2035 15.8492 30.8241 15.8876C29.9241 14.0329 28.5282 12.5016 26.7633 11.4617C26.7568 9.51588 26.5928 8.18244 26.4184 7.31236C26.3539 6.97695 26.2691 6.64575 26.1646 6.32058C26.1226 6.1941 26.0741 6.06986 26.0194 5.94834L26.0142 5.93727L26.0116 5.93272L26.0103 5.93012L26.0097 5.92816C25.9286 5.766 25.8039 5.62964 25.6496 5.53435C25.4954 5.43906 25.3177 5.38862 25.1363 5.38867ZM24.4856 14.9876C25.1142 14.9876 25.6244 15.4978 25.6244 16.1264V16.7772C25.6244 17.0793 25.5044 17.3689 25.2909 17.5825C25.0773 17.7961 24.7876 17.9161 24.4856 17.9161C24.1835 17.9161 23.8938 17.7961 23.6803 17.5825C23.4667 17.3689 23.3467 17.0793 23.3467 16.7772V16.1264C23.3467 15.4978 23.8569 14.9876 24.4856 14.9876ZM16.9711 14.3368C17.23 14.3336 17.477 14.2277 17.6578 14.0424C17.8386 13.8571 17.9384 13.6075 17.9352 13.3486C17.932 13.0897 17.8261 12.8427 17.6408 12.6619C17.4555 12.4811 17.2059 12.3813 16.947 12.3845C16.6138 12.3888 16.2938 12.3949 15.9871 12.4027C13.8343 12.458 11.9575 13.2695 10.6156 14.6186C10.5226 14.7089 10.4485 14.8168 10.3977 14.936C10.3468 15.0552 10.3202 15.1833 10.3194 15.3129C10.3186 15.4425 10.3436 15.571 10.393 15.6908C10.4423 15.8107 10.5151 15.9195 10.6069 16.0109C10.6988 16.1023 10.8079 16.1746 10.928 16.2234C11.0481 16.2722 11.1766 16.2966 11.3062 16.2951C11.4358 16.2937 11.5639 16.2665 11.6828 16.2151C11.8018 16.1637 11.9093 16.0891 11.9992 15.9956C12.9656 15.024 14.355 14.398 16.0379 14.3544C16.3351 14.3466 16.6461 14.3407 16.9711 14.3368Z" fill="white" fill-opacity="0.4"/>
<path d="M4.10229 4.16406L36.6931 36.7549" stroke="#6E6E6F" stroke-width="2.6425" stroke-linecap="round"/>
<path d="M5.86401 2.40234L38.4548 34.9932" stroke="#0E0E0F" stroke-width="2.6425" stroke-linecap="round"/>
</g>
<defs>
<clipPath id="clip0_268_3180">
<rect width="40" height="40" fill="white"/>
</clipPath>
</defs>
</svg>
