<svg width="18" height="18" viewBox="0 0 18 18" fill="none" xmlns="http://www.w3.org/2000/svg">
<path d="M15.6036 14.1036C15.6973 14.1973 15.75 14.3245 15.75 14.4571V14.5C15.75 14.7761 15.5261 15 15.25 15H2.75C2.47386 15 2.25 14.7761 2.25 14.5V14.4571C2.25 14.3245 2.30268 14.1973 2.39645 14.1036L3.60355 12.8964C3.69732 12.8027 3.75 12.6755 3.75 12.5429V8.25C3.75 5.99783 5.17861 4.00604 7.29278 3.28357C7.41485 3.24186 7.5 3.129 7.5 3C7.5 2.60218 7.65804 2.22064 7.93934 1.93934C8.22064 1.65804 8.60218 1.5 9 1.5C9.39782 1.5 9.77936 1.65804 10.0607 1.93934C10.342 2.22064 10.5 2.60218 10.5 3C10.5 3.129 10.5852 3.24186 10.7072 3.28357C12.8214 4.00604 14.25 5.99783 14.25 8.25V12.5429C14.25 12.6755 14.3027 12.8027 14.3964 12.8964L15.6036 14.1036ZM10.5 15.75C10.5 16.1478 10.342 16.5294 10.0607 16.8107C9.77936 17.092 9.39782 17.25 9 17.25C8.60218 17.25 8.22064 17.092 7.93934 16.8107C7.65804 16.5294 7.5 16.1478 7.5 15.75" fill="white"/>
</svg>
