<svg width="14" height="14" viewBox="0 0 14 14" fill="none" xmlns="http://www.w3.org/2000/svg">
<path d="M6.41659 3.49989H8.16659L10.0858 1.57489C10.14 1.52022 10.2045 1.47682 10.2756 1.44721C10.3467 1.41759 10.4229 1.40234 10.4999 1.40234C10.5769 1.40234 10.6532 1.41759 10.7243 1.44721C10.7953 1.47682 10.8599 1.52022 10.9141 1.57489L12.4191 3.08573C12.5277 3.19502 12.5887 3.34287 12.5887 3.49698C12.5887 3.65108 12.5277 3.79893 12.4191 3.90823L11.0833 5.24989H6.41659V6.41656C6.41659 6.57127 6.35514 6.71964 6.24574 6.82904C6.13634 6.93843 5.98797 6.99989 5.83326 6.99989C5.67855 6.99989 5.53018 6.93843 5.42078 6.82904C5.31139 6.71964 5.24993 6.57127 5.24993 6.41656V4.66656C5.24993 4.35714 5.37284 4.06039 5.59164 3.8416C5.81043 3.62281 6.10718 3.49989 6.41659 3.49989ZM2.9166 6.41656V8.74989L1.58076 10.0857C1.47212 10.195 1.41113 10.3429 1.41113 10.497C1.41113 10.6511 1.47212 10.7989 1.58076 10.9082L3.08576 12.4191C3.13999 12.4737 3.20451 12.5171 3.27559 12.5467C3.34668 12.5764 3.42292 12.5916 3.49993 12.5916C3.57694 12.5916 3.65318 12.5764 3.72426 12.5467C3.79535 12.5171 3.85987 12.4737 3.91409 12.4191L6.41659 9.91656H8.74993C8.90464 9.91656 9.05301 9.8551 9.16241 9.74571C9.2718 9.63631 9.33326 9.48794 9.33326 9.33323V8.74989H9.91659C10.0713 8.74989 10.2197 8.68843 10.3291 8.57904C10.4385 8.46964 10.4999 8.32127 10.4999 8.16656V7.58323H11.0833C11.238 7.58323 11.3863 7.52177 11.4957 7.41237C11.6051 7.30298 11.6666 7.1546 11.6666 6.99989V6.41656H7.58326V6.99989C7.58326 7.30931 7.46034 7.60606 7.24155 7.82485C7.02276 8.04364 6.72601 8.16656 6.41659 8.16656H5.24993C4.94051 8.16656 4.64376 8.04364 4.42497 7.82485C4.20618 7.60606 4.08326 7.30931 4.08326 6.99989V5.24989L2.9166 6.41656Z" fill="white"/>
</svg>
