<svg width="20" height="20" viewBox="0 0 20 20" fill="none" xmlns="http://www.w3.org/2000/svg">
<path d="M1.66663 6.77067C1.66663 6.08 1.94099 5.41762 2.42937 4.92925C2.91774 4.44087 3.58012 4.1665 4.27079 4.1665H15.7291C16.4198 4.1665 17.0822 4.44087 17.5705 4.92925C18.0589 5.41762 18.3333 6.08 18.3333 6.77067V13.229C18.3333 13.9197 18.0589 14.5821 17.5705 15.0704C17.0822 15.5588 16.4198 15.8332 15.7291 15.8332H4.27079C3.58012 15.8332 2.91774 15.5588 2.42937 15.0704C1.94099 14.5821 1.66663 13.9197 1.66663 13.229V6.77067ZM5.05579 8.48567C4.9581 8.38798 4.82561 8.3331 4.68746 8.3331C4.54931 8.3331 4.41681 8.38798 4.31913 8.48567C4.22144 8.58336 4.16656 8.71585 4.16656 8.854C4.16656 8.99216 4.22144 9.12465 4.31913 9.22234L5.09663 9.99984L4.31913 10.7773C4.22144 10.875 4.16656 11.0075 4.16656 11.1457C4.16656 11.2838 4.22144 11.4163 4.31913 11.514C4.41681 11.6117 4.54931 11.6666 4.68746 11.6666C4.82561 11.6666 4.9581 11.6117 5.05579 11.514L5.83329 10.7365L6.61079 11.514C6.70848 11.6117 6.84097 11.6666 6.97913 11.6666C7.11728 11.6666 7.24977 11.6117 7.34746 11.514C7.44515 11.4163 7.50003 11.2838 7.50003 11.1457C7.50003 11.0075 7.44515 10.875 7.34746 10.7773L6.56996 9.99984L7.34746 9.22234C7.44515 9.12465 7.50003 8.99216 7.50003 8.854C7.50003 8.71585 7.44515 8.58336 7.34746 8.48567C7.24977 8.38798 7.11728 8.3331 6.97913 8.3331C6.84097 8.3331 6.70848 8.38798 6.61079 8.48567L5.83329 9.26317L5.05579 8.48567ZM8.90246 8.48567C8.85408 8.53404 8.8157 8.59146 8.78952 8.65466C8.76334 8.71786 8.74986 8.7856 8.74986 8.854C8.74986 8.92241 8.76334 8.99015 8.78952 9.05335C8.8157 9.11655 8.85408 9.17397 8.90246 9.22234L9.67996 9.99984L8.90246 10.7773C8.80477 10.875 8.74989 11.0075 8.74989 11.1457C8.74989 11.2838 8.80477 11.4163 8.90246 11.514C9.00015 11.6117 9.13264 11.6666 9.27079 11.6666C9.40894 11.6666 9.54144 11.6117 9.63913 11.514L10.4166 10.7365L11.1941 11.514C11.2918 11.6117 11.4243 11.6666 11.5625 11.6666C11.7006 11.6666 11.8331 11.6117 11.9308 11.514C12.0285 11.4163 12.0834 11.2838 12.0834 11.1457C12.0834 11.0075 12.0285 10.875 11.9308 10.7773L11.1533 9.99984L11.9308 9.22234C12.0285 9.12465 12.0834 8.99216 12.0834 8.854C12.0834 8.71585 12.0285 8.58336 11.9308 8.48567C11.8331 8.38798 11.7006 8.3331 11.5625 8.3331C11.4243 8.3331 11.2918 8.38798 11.1941 8.48567L10.4166 9.26317L9.63913 8.48567C9.59076 8.43729 9.53334 8.39892 9.47014 8.37273C9.40694 8.34655 9.3392 8.33307 9.27079 8.33307C9.20238 8.33307 9.13465 8.34655 9.07145 8.37273C9.00825 8.39892 8.95082 8.43729 8.90246 8.48567ZM13.8541 10.6248C13.716 10.6248 13.5835 10.6797 13.4858 10.7774C13.3882 10.8751 13.3333 11.0075 13.3333 11.1457C13.3333 11.2838 13.3882 11.4163 13.4858 11.514C13.5835 11.6116 13.716 11.6665 13.8541 11.6665H15.7291C15.8673 11.6665 15.9997 11.6116 16.0974 11.514C16.1951 11.4163 16.25 11.2838 16.25 11.1457C16.25 11.0075 16.1951 10.8751 16.0974 10.7774C15.9997 10.6797 15.8673 10.6248 15.7291 10.6248H13.8541Z" fill="white"/>
</svg>
