<svg width="20" height="20" viewBox="0 0 20 20" fill="none" xmlns="http://www.w3.org/2000/svg">
<g opacity="0.7">
<mask id="mask0_12_85838" style="mask-type:alpha" maskUnits="userSpaceOnUse" x="0" y="0" width="20" height="20">
<rect width="20" height="20" fill="#D9D9D9"/>
</mask>
<g mask="url(#mask0_12_85838)">
</g>
<path fill-rule="evenodd" clip-rule="evenodd" d="M9.58366 2.5C10.4029 2.49979 11.1997 2.76787 11.8522 3.26328C12.5047 3.75868 12.9771 4.45414 13.197 5.24333L13.2403 5.41417L14.7987 5.025C14.9126 4.99665 15.0312 4.99268 15.1467 5.01335C15.2622 5.03403 15.3721 5.07887 15.4691 5.14496C15.5661 5.21105 15.6481 5.29688 15.7096 5.39684C15.7711 5.4968 15.8109 5.60863 15.8262 5.725L15.8337 5.83333V7.34167C16.3037 7.79191 16.6887 8.32318 16.9703 8.91L17.0853 9.16667H17.5003C17.7044 9.16669 17.9014 9.24163 18.054 9.37726C18.2065 9.5129 18.3039 9.69979 18.3278 9.9025L18.3337 10V12.5C18.3337 12.6372 18.2998 12.7722 18.2352 12.8932C18.1705 13.0141 18.0769 13.1172 17.9628 13.1933L17.8728 13.245L16.8995 13.7325C16.5017 14.5039 15.9244 15.1684 15.2162 15.67L15.0003 15.815V16.6667C15.0003 16.8708 14.9254 17.0678 14.7897 17.2203C14.6541 17.3728 14.4672 17.4703 14.2645 17.4942L14.167 17.5H11.667C11.4629 17.5 11.2659 17.425 11.1133 17.2894C10.9608 17.1538 10.8634 16.9669 10.8395 16.7642L10.8337 16.6667H10.0003C10.0003 16.8708 9.92536 17.0678 9.78973 17.2203C9.6541 17.3728 9.4672 17.4703 9.26449 17.4942L9.16699 17.5H6.66699C6.46288 17.5 6.26588 17.425 6.11335 17.2894C5.96082 17.1538 5.86337 16.9669 5.83949 16.7642L5.83366 16.6667V15.815C5.2314 15.4304 4.7112 14.9304 4.30301 14.3439C3.89483 13.7574 3.60673 13.0959 3.45533 12.3975C2.96381 12.2515 2.52909 11.9578 2.21008 11.5564C1.89108 11.155 1.70323 10.6651 1.67199 10.1533L1.66699 10V9.58333C1.66723 9.37093 1.74856 9.16664 1.89437 9.01219C2.04017 8.85775 2.23945 8.7648 2.45149 8.75236C2.66352 8.73991 2.87231 8.8089 3.03519 8.94522C3.19806 9.08155 3.30274 9.27492 3.32783 9.48583L3.33366 9.58333V10C3.33477 10.1244 3.35977 10.2397 3.40866 10.3458C3.53565 9.59553 3.81932 8.8804 4.24117 8.24705C4.66302 7.6137 5.21359 7.07634 5.85699 6.67C5.79787 6.1454 5.85017 5.61423 6.01048 5.11125C6.17079 4.60826 6.4355 4.14479 6.78728 3.75115C7.13907 3.35752 7.57 3.0426 8.05188 2.827C8.53376 2.61139 9.05574 2.49996 9.58366 2.5ZM13.3337 9.16667C13.1126 9.16667 12.9007 9.25446 12.7444 9.41074C12.5881 9.56702 12.5003 9.77899 12.5003 10C12.5003 10.221 12.5881 10.433 12.7444 10.5893C12.9007 10.7455 13.1126 10.8333 13.3337 10.8333C13.5547 10.8333 13.7666 10.7455 13.9229 10.5893C14.0792 10.433 14.167 10.221 14.167 10C14.167 9.77899 14.0792 9.56702 13.9229 9.41074C13.7666 9.25446 13.5547 9.16667 13.3337 9.16667ZM9.58366 4.16667C9.0789 4.16666 8.59131 4.34992 8.2115 4.68237C7.83169 5.01482 7.58549 5.47385 7.51866 5.97417C7.92247 5.88024 8.33573 5.83299 8.75033 5.83333H11.5645L11.6228 5.81917C11.524 5.35163 11.2675 4.93228 10.8962 4.63142C10.5249 4.33055 10.0615 4.16647 9.58366 4.16667Z" fill="white"/>
</g>
</svg>
