<svg width="16" height="16" viewBox="0 0 16 16" fill="none" xmlns="http://www.w3.org/2000/svg">
<path d="M13.7597 9.57555C13.959 9.42132 14.1203 9.22349 14.2313 8.99725C14.3423 8.77101 14.4 8.52235 14.4 8.27035C14.4 8.01835 14.3423 7.7697 14.2313 7.54346C14.1203 7.31721 13.959 7.11939 13.7597 6.96515C11.1787 4.96876 8.29714 3.39486 5.22253 2.30225L4.66033 2.10251C3.58587 1.72111 2.45028 2.44775 2.30478 3.55751C1.89841 6.68627 1.89841 9.85444 2.30478 12.9832C2.45114 14.093 3.58587 14.8196 4.66033 14.4382L5.22253 14.2385C8.29714 13.1458 11.1787 11.5719 13.7597 9.57555Z" fill="url(#paint0_linear_1156_41633)"/>
<defs>
<linearGradient id="paint0_linear_1156_41633" x1="2" y1="8.27035" x2="14.4" y2="8.27035" gradientUnits="userSpaceOnUse">
<stop stop-color="white"/>
<stop offset="1" stop-color="#D6D6D6"/>
</linearGradient>
</defs>
</svg>
