<svg width="18" height="18" viewBox="0 0 18 18" fill="none" xmlns="http://www.w3.org/2000/svg">
<g opacity="0.5">
<path d="M2.25 8.25H8.25V2.25H2.25V8.25ZM3.75 3.75H6.75V6.75H3.75V3.75ZM2.25 15.75H8.25V9.75H2.25V15.75ZM3.75 11.25H6.75V14.25H3.75V11.25ZM9.75 2.25V8.25H15.75V2.25H9.75ZM14.25 6.75H11.25V3.75H14.25V6.75ZM9.7575 9.75H11.2575V11.25H9.7575V9.75ZM11.2575 11.25H12.7575V12.75H11.2575V11.25ZM9.7575 12.75H11.2575V14.25H9.7575V12.75ZM12.7575 12.75H14.2575V14.25H12.7575V12.75ZM14.2575 14.25H15.7575V15.75H14.2575V14.25ZM11.2575 14.25H12.7575V15.75H11.2575V14.25ZM12.7575 9.75H14.2575V11.25H12.7575V9.75ZM14.2575 11.25H15.7575V12.75H14.2575V11.25Z" fill="white"/>
</g>
</svg>
