<svg width="20" height="20" viewBox="0 0 20 20" fill="none" xmlns="http://www.w3.org/2000/svg">
<path d="M9.37515 10.7662C9.37515 11.0412 9.24181 11.2912 9.01681 11.4495L3.00848 15.6578C2.51681 15.9995 1.81681 15.7328 1.70848 15.1412C1.58348 14.4245 1.75015 13.5828 2.25015 12.6745L7.30015 3.59118C7.49181 3.24951 7.70015 2.94951 7.91681 2.69118C8.41681 2.10785 9.37515 2.48285 9.37515 3.24951V10.7662Z" fill="#4D4D4D"/>
<path d="M10.9837 11.4495C10.7587 11.2912 10.6254 11.0412 10.6254 10.7662V3.24951C10.6254 2.48285 11.5837 2.10785 12.0837 2.69118C12.3004 2.94951 12.5087 3.24951 12.7004 3.59118L17.7504 12.6745C18.2504 13.5828 18.4171 14.4245 18.2921 15.1412C18.1837 15.7328 17.4837 15.9995 16.9921 15.6578L10.9837 11.4495Z" fill="#4D4D4D"/>
<path d="M9.50889 12.534C9.78389 12.3507 10.2339 12.3507 10.5089 12.534L15.6339 15.9507C16.9922 16.859 16.7672 17.6007 15.1339 17.6007H4.87556C3.25056 17.5923 3.02556 16.8506 4.38389 15.9507L9.50889 12.534Z" fill="#4D4D4D"/>
</svg>
