<svg width="14" height="14" viewBox="0 0 14 14" fill="none" xmlns="http://www.w3.org/2000/svg">
<path d="M7 6.41667C7.32083 6.41667 7.59558 6.30253 7.82425 6.07425C8.05292 5.84597 8.16706 5.57122 8.16667 5.25C8.16628 4.92878 8.05214 4.65422 7.82425 4.42633C7.59636 4.19844 7.32161 4.08411 7 4.08333C6.67839 4.08256 6.40383 4.19689 6.17633 4.42633C5.94883 4.65578 5.8345 4.93033 5.83333 5.25C5.83217 5.56967 5.9465 5.84442 6.17633 6.07425C6.40617 6.30408 6.68072 6.41822 7 6.41667ZM4.08333 12.25V11.0833H6.41667V9.275C5.94028 9.16806 5.51503 8.96642 5.14092 8.67008C4.76681 8.37375 4.49206 8.00178 4.31667 7.55417C3.5875 7.46667 2.97753 7.14836 2.48675 6.59925C1.99597 6.05014 1.75039 5.40594 1.75 4.66667V4.08333C1.75 3.7625 1.86433 3.48794 2.093 3.25967C2.32167 3.03139 2.59622 2.91706 2.91667 2.91667H4.08333V1.75H9.91667V2.91667H11.0833C11.4042 2.91667 11.6789 3.031 11.9076 3.25967C12.1362 3.48833 12.2504 3.76289 12.25 4.08333V4.66667C12.25 5.40556 12.0044 6.04975 11.5132 6.59925C11.0221 7.14875 10.4121 7.46706 9.68333 7.55417C9.50833 8.00139 9.23378 8.37336 8.85967 8.67008C8.48556 8.96681 8.06011 9.16844 7.58333 9.275V11.0833H9.91667V12.25H4.08333ZM4.08333 6.3V4.08333H2.91667V4.66667C2.91667 5.03611 3.02361 5.36919 3.2375 5.66592C3.45139 5.96264 3.73333 6.174 4.08333 6.3ZM9.91667 6.3C10.2667 6.17361 10.5486 5.96206 10.7625 5.66533C10.9764 5.36861 11.0833 5.03572 11.0833 4.66667V4.08333H9.91667V6.3Z" fill="white"/>
</svg>
