<svg width="14" height="14" viewBox="0 0 14 14" fill="none" xmlns="http://www.w3.org/2000/svg">
<mask id="mask0_167_2874" style="mask-type:alpha" maskUnits="userSpaceOnUse" x="0" y="0" width="14" height="14">
<rect width="14" height="14" fill="#D9D9D9"/>
</mask>
<g mask="url(#mask0_167_2874)">
<path d="M1.74992 11.6673C1.42909 11.6673 1.15443 11.5531 0.92596 11.3246C0.697488 11.0961 0.583252 10.8215 0.583252 10.5007V4.08398H1.74992V10.5007H11.6666V11.6673H1.74992ZM4.08325 9.33398C3.76242 9.33398 3.48777 9.21975 3.25929 8.99128C3.03082 8.7628 2.91659 8.48815 2.91659 8.16732V3.50065C2.91659 3.17982 3.03082 2.90516 3.25929 2.67669C3.48777 2.44822 3.76242 2.33398 4.08325 2.33398H12.2499C12.5708 2.33398 12.8454 2.44822 13.0739 2.67669C13.3023 2.90516 13.4166 3.17982 13.4166 3.50065V8.16732C13.4166 8.48815 13.3023 8.7628 13.0739 8.99128C12.8454 9.21975 12.5708 9.33398 12.2499 9.33398H4.08325ZM5.24992 8.16732C5.24992 7.84648 5.13568 7.57183 4.90721 7.34336C4.67874 7.11489 4.40409 7.00065 4.08325 7.00065V8.16732H5.24992ZM11.0833 8.16732H12.2499V7.00065C11.9291 7.00065 11.6544 7.11489 11.426 7.34336C11.1975 7.57183 11.0833 7.84648 11.0833 8.16732ZM8.16658 7.58398C8.6527 7.58398 9.06589 7.41385 9.40617 7.07357C9.74645 6.73329 9.91658 6.3201 9.91658 5.83398C9.91658 5.34787 9.74645 4.93468 9.40617 4.5944C9.06589 4.25412 8.6527 4.08398 8.16658 4.08398C7.68047 4.08398 7.26728 4.25412 6.927 4.5944C6.58672 4.93468 6.41658 5.34787 6.41658 5.83398C6.41658 6.3201 6.58672 6.73329 6.927 7.07357C7.26728 7.41385 7.68047 7.58398 8.16658 7.58398ZM4.08325 4.66732C4.40409 4.66732 4.67874 4.55308 4.90721 4.32461C5.13568 4.09614 5.24992 3.82148 5.24992 3.50065H4.08325V4.66732ZM12.2499 4.66732V3.50065H11.0833C11.0833 3.82148 11.1975 4.09614 11.426 4.32461C11.6544 4.55308 11.9291 4.66732 12.2499 4.66732Z" fill="white"/>
</g>
</svg>
