<svg width="14" height="14" viewBox="0 0 14 14" fill="none" xmlns="http://www.w3.org/2000/svg">
<path d="M4.66699 6.41667C5.28583 6.41667 5.87932 6.17083 6.31691 5.73325C6.75449 5.29566 7.00033 4.70217 7.00033 4.08333C7.00033 3.46449 6.75449 2.871 6.31691 2.43342C5.87932 1.99583 5.28583 1.75 4.66699 1.75C4.04815 1.75 3.45466 1.99583 3.01708 2.43342C2.57949 2.871 2.33366 3.46449 2.33366 4.08333C2.33366 4.70217 2.57949 5.29566 3.01708 5.73325C3.45466 6.17083 4.04815 6.41667 4.66699 6.41667ZM9.91699 6.41667C10.3811 6.41667 10.8262 6.23229 11.1544 5.9041C11.4826 5.57591 11.667 5.1308 11.667 4.66667C11.667 4.20254 11.4826 3.75742 11.1544 3.42923C10.8262 3.10104 10.3811 2.91667 9.91699 2.91667C9.45286 2.91667 9.00774 3.10104 8.67955 3.42923C8.35137 3.75742 8.16699 4.20254 8.16699 4.66667C8.16699 5.1308 8.35137 5.57591 8.67955 5.9041C9.00774 6.23229 9.45286 6.41667 9.91699 6.41667ZM2.47949 7.58333C2.1314 7.58333 1.79756 7.72161 1.55141 7.96776C1.30527 8.2139 1.16699 8.54774 1.16699 8.89583V9.04167C1.16699 9.04167 1.16699 11.6667 4.66699 11.6667C5.38916 11.6667 5.96199 11.5547 6.41699 11.3779V9.04167C6.41699 8.421 6.80491 7.89133 7.35091 7.68017C7.1935 7.61528 7.02475 7.58236 6.85449 7.58333H2.47949ZM7.00033 9.04167C7.00033 8.8096 7.09251 8.58704 7.25661 8.42295C7.4207 8.25885 7.64326 8.16667 7.87533 8.16667H12.542C12.7741 8.16667 12.9966 8.25885 13.1607 8.42295C13.3248 8.58704 13.417 8.8096 13.417 9.04167V11.375C13.417 11.6071 13.3248 11.8296 13.1607 11.9937C12.9966 12.1578 12.7741 12.25 12.542 12.25H7.87533C7.64326 12.25 7.4207 12.1578 7.25661 11.9937C7.09251 11.8296 7.00033 11.6071 7.00033 11.375V9.04167ZM7.58366 9.33333V9.91667C7.89308 9.91667 8.18982 9.79375 8.40862 9.57496C8.62741 9.35616 8.75033 9.05942 8.75033 8.75H8.16699C8.16699 8.90471 8.10553 9.05308 7.99614 9.16248C7.88674 9.27187 7.73837 9.33333 7.58366 9.33333ZM12.8337 9.91667V9.33333C12.6789 9.33333 12.5306 9.27187 12.4212 9.16248C12.3118 9.05308 12.2503 8.90471 12.2503 8.75H11.667C11.667 9.05942 11.7899 9.35616 12.0087 9.57496C12.2275 9.79375 12.5242 9.91667 12.8337 9.91667ZM11.667 11.6667H12.2503C12.2503 11.512 12.3118 11.3636 12.4212 11.2542C12.5306 11.1448 12.6789 11.0833 12.8337 11.0833V10.5C12.5242 10.5 12.2275 10.6229 12.0087 10.8417C11.7899 11.0605 11.667 11.3572 11.667 11.6667ZM7.58366 10.5V11.0833C7.73837 11.0833 7.88674 11.1448 7.99614 11.2542C8.10553 11.3636 8.16699 11.512 8.16699 11.6667H8.75033C8.75033 11.3572 8.62741 11.0605 8.40862 10.8417C8.18982 10.6229 7.89308 10.5 7.58366 10.5ZM10.2087 11.2292C10.4794 11.2292 10.7391 11.1216 10.9305 10.9302C11.1219 10.7387 11.2295 10.4791 11.2295 10.2083C11.2295 9.93759 11.1219 9.67794 10.9305 9.4865C10.7391 9.29505 10.4794 9.1875 10.2087 9.1875C9.93792 9.1875 9.67826 9.29505 9.48682 9.4865C9.29538 9.67794 9.18783 9.93759 9.18783 10.2083C9.18783 10.4791 9.29538 10.7387 9.48682 10.9302C9.67826 11.1216 9.93792 11.2292 10.2087 11.2292Z" fill="white"/>
</svg>
