<svg width="36" height="36" viewBox="0 0 36 36" fill="none" xmlns="http://www.w3.org/2000/svg">
<path d="M36 25C36 22.7909 34.2091 21 32 21H25C22.7909 21 21 22.7909 21 25V32C21 34.2091 22.7909 36 25 36H8C3.58172 36 0 32.4183 0 28V8C0 3.58172 3.58172 0 8 0H28C32.4183 0 36 3.58172 36 8V25Z" fill="#14C784" fill-opacity="0.1"/>
<g filter="url(#filter0_ii_1211_5627)">
<path d="M26 2C30.4183 2 34 5.58172 34 10V21.5361C33.4116 21.1956 32.7288 21 32 21H25C22.7909 21 21 22.7909 21 25V32C21 32.7288 21.1956 33.4116 21.5361 34H10C5.58172 34 2 30.4183 2 26V10C2 5.58172 5.58172 2 10 2H26Z" fill="url(#paint0_radial_1211_5627)"/>
</g>
<path d="M18.9895 9.44393C18.8584 9.30689 18.7003 9.19698 18.5246 9.12075C18.349 9.04451 18.1594 9.00352 17.9671 9.00022C17.7749 8.99691 17.5839 9.03136 17.4056 9.10151C17.2273 9.17166 17.0653 9.27608 16.9294 9.40852C16.7934 9.54097 16.6862 9.69873 16.6142 9.87241C16.5422 10.0461 16.5068 10.2321 16.5102 10.4194C16.5136 10.6067 16.5557 10.7914 16.6339 10.9625C16.7122 11.1335 16.825 11.2875 16.9657 11.4152L17.3857 11.8244H13.6819C12.4584 11.8244 11.2584 12.1517 10.2127 12.7705C9.16705 13.3893 8.31587 14.2758 7.75199 15.3335C7.18811 16.3912 6.93316 17.5793 7.01495 18.7684C7.09674 19.9576 7.51212 21.102 8.21581 22.0769C8.43931 22.3667 8.76983 22.5604 9.13736 22.6169C9.5049 22.6734 9.8806 22.5883 10.1849 22.3797C10.4891 22.1711 10.6981 21.8553 10.7674 21.4992C10.8368 21.1431 10.7612 20.7747 10.5565 20.472C10.1544 19.9148 9.9172 19.2607 9.87062 18.5811C9.82404 17.9015 9.96992 17.2225 10.2923 16.6182C10.6148 16.0138 11.1014 15.5073 11.6991 15.1539C12.2968 14.8005 12.9827 14.6137 13.6819 14.6139H17.3857L16.9657 15.0231C16.825 15.1507 16.7122 15.3047 16.6339 15.4758C16.5557 15.6469 16.5136 15.8316 16.5102 16.0189C16.5068 16.2062 16.5422 16.3922 16.6142 16.5659C16.6862 16.7395 16.7934 16.8973 16.9294 17.0297C17.0653 17.1622 17.2273 17.2666 17.4056 17.3368C17.5839 17.4069 17.7749 17.4414 17.9671 17.4381C18.1594 17.4347 18.349 17.3938 18.5246 17.3175C18.7003 17.2413 18.8584 17.1314 18.9895 16.9943L21.8533 14.2048C22.1214 13.9433 22.272 13.5888 22.272 13.2191C22.272 12.8495 22.1214 12.495 21.8533 12.2335L18.9895 9.44393ZM26.7828 14.5879C26.6757 14.4354 26.5385 14.3051 26.3793 14.2047C26.2201 14.1043 26.0419 14.0357 25.8552 14.0029C25.6685 13.9701 25.477 13.9738 25.2918 14.0137C25.1066 14.0536 24.9313 14.129 24.7763 14.2354C24.6212 14.3419 24.4894 14.4773 24.3885 14.6338C24.2876 14.7903 24.2197 14.9647 24.1886 15.147C24.1575 15.3293 24.1639 15.5158 24.2074 15.6956C24.251 15.8755 24.3307 16.0451 24.4422 16.1947C24.8441 16.7518 25.0814 17.4057 25.128 18.0851C25.1747 18.7645 25.0289 19.4434 24.7067 20.0476C24.3845 20.6519 23.8982 21.1585 23.3008 21.512C22.7034 21.8656 22.0178 22.0526 21.3187 22.0528H17.6148L18.0349 21.6436C18.1755 21.5159 18.2884 21.3619 18.3666 21.1908C18.4449 21.0198 18.487 20.8351 18.4904 20.6478C18.4938 20.4605 18.4584 20.2745 18.3864 20.1008C18.3144 19.9271 18.2072 19.7694 18.0712 19.6369C17.9352 19.5045 17.7733 19.4001 17.595 19.3299C17.4167 19.2598 17.2257 19.2253 17.0334 19.2286C16.8412 19.2319 16.6516 19.2729 16.4759 19.3491C16.3003 19.4254 16.1422 19.5353 16.0111 19.6723L13.1473 22.4619C12.8791 22.7234 12.7285 23.0779 12.7285 23.4475C12.7285 23.8172 12.8791 24.1717 13.1473 24.4332L16.0111 27.2227C16.1422 27.3598 16.3003 27.4697 16.4759 27.5459C16.6516 27.6222 16.8412 27.6631 17.0334 27.6665C17.2257 27.6698 17.4167 27.6353 17.595 27.5652C17.7733 27.495 17.9352 27.3906 18.0712 27.2581C18.2072 27.1257 18.3144 26.9679 18.3864 26.7943C18.4584 26.6206 18.4938 26.4346 18.4904 26.2473C18.487 26.06 18.4449 25.8753 18.3666 25.7042C18.2884 25.5331 18.1755 25.3791 18.0349 25.2514L17.6148 24.8423H21.3187C22.5423 24.8421 23.7425 24.5147 24.7882 23.8957C25.8338 23.2767 26.685 22.3898 27.2487 21.3319C27.8124 20.274 28.0671 19.0856 27.9849 17.8964C27.9028 16.7071 27.487 15.5627 26.7828 14.5879Z" fill="white"/>
<rect x="21" y="21" width="15" height="15" rx="4" fill="#443235"/>
<path d="M32.2939 25.3252C32.5372 25.0822 32.9317 25.0821 33.1748 25.3252C33.4179 25.5684 33.418 25.9629 33.1748 26.2061L27.043 32.3369L26.9854 32.3945L24.3252 29.7344C24.0821 29.4911 24.0821 29.0968 24.3252 28.8535C24.5682 28.6105 24.9627 28.6099 25.2061 28.8525L26.9844 30.6279L32.2939 25.3252Z" fill="white" stroke="white" stroke-width="0.162857"/>
<defs>
<filter id="filter0_ii_1211_5627" x="1" y="1" width="34" height="34" filterUnits="userSpaceOnUse" color-interpolation-filters="sRGB">
<feFlood flood-opacity="0" result="BackgroundImageFix"/>
<feBlend mode="normal" in="SourceGraphic" in2="BackgroundImageFix" result="shape"/>
<feColorMatrix in="SourceAlpha" type="matrix" values="0 0 0 0 0 0 0 0 0 0 0 0 0 0 0 0 0 0 127 0" result="hardAlpha"/>
<feOffset dx="-1" dy="-1"/>
<feGaussianBlur stdDeviation="0.5"/>
<feComposite in2="hardAlpha" operator="arithmetic" k2="-1" k3="1"/>
<feColorMatrix type="matrix" values="0 0 0 0 0 0 0 0 0 0 0 0 0 0 0 0 0 0 0.25 0"/>
<feBlend mode="normal" in2="shape" result="effect1_innerShadow_1211_5627"/>
<feColorMatrix in="SourceAlpha" type="matrix" values="0 0 0 0 0 0 0 0 0 0 0 0 0 0 0 0 0 0 127 0" result="hardAlpha"/>
<feOffset dx="1" dy="1"/>
<feGaussianBlur stdDeviation="0.5"/>
<feComposite in2="hardAlpha" operator="arithmetic" k2="-1" k3="1"/>
<feColorMatrix type="matrix" values="0 0 0 0 1 0 0 0 0 1 0 0 0 0 1 0 0 0 0.25 0"/>
<feBlend mode="normal" in2="effect1_innerShadow_1211_5627" result="effect2_innerShadow_1211_5627"/>
</filter>
<radialGradient id="paint0_radial_1211_5627" cx="0" cy="0" r="1" gradientUnits="userSpaceOnUse" gradientTransform="translate(12.6667 10.4444) rotate(52.275) scale(29.7811 19.5601)">
<stop stop-color="#14C784"/>
<stop offset="1" stop-color="#53996D"/>
</radialGradient>
</defs>
</svg>
