<svg width="24" height="24" viewBox="0 0 24 24" fill="none" xmlns="http://www.w3.org/2000/svg">
<path d="M24 16.667C24 15.1942 22.8058 14 21.333 14H16.667C15.1942 14 14 15.1942 14 16.667V21.333C14 22.8058 15.1942 24 16.667 24H5.33333C2.38782 24 0 21.6122 0 18.6667V5.33333C0 2.38782 2.38781 0 5.33333 0H18.6667C21.6122 0 24 2.38781 24 5.33333V16.667Z" fill="#F0324F" fill-opacity="0.1"/>
<g filter="url(#filter0_ii_1131_40583)">
<path d="M17.333 1.33331C20.2784 1.33332 22.6658 3.72095 22.666 6.66632V14.3587C22.2736 14.1316 21.819 14.0003 21.333 14.0003H16.666C15.1935 14.0005 14.0002 15.1938 14 16.6663V21.3333C14 21.8193 14.1313 22.274 14.3584 22.6663H6.66602C3.72065 22.6661 1.33301 20.2787 1.33301 17.3333V6.66632C1.33319 3.72106 3.72076 1.33349 6.66602 1.33331H17.333Z" fill="url(#paint0_radial_1131_40583)"/>
</g>
<path d="M12.66 6.29595C12.5726 6.2046 12.4672 6.13132 12.3501 6.0805C12.233 6.02968 12.1066 6.00235 11.9784 6.00014C11.8502 5.99794 11.7229 6.02091 11.6041 6.06768C11.4852 6.11444 11.3772 6.18405 11.2866 6.27235C11.1959 6.36065 11.1245 6.46582 11.0764 6.58161C11.0284 6.69739 11.0049 6.82141 11.0071 6.94626C11.0094 7.07111 11.0374 7.19424 11.0896 7.3083C11.1418 7.42236 11.217 7.52502 11.3108 7.61015L11.5908 7.8829H9.12157C8.3059 7.88295 7.5059 8.10113 6.8088 8.51365C6.11169 8.92618 5.54424 9.51722 5.16832 10.2223C4.7924 10.9274 4.62243 11.7196 4.67696 12.5123C4.73148 13.305 5.00841 14.068 5.47753 14.718C5.62653 14.9111 5.84688 15.0402 6.0919 15.0779C6.33693 15.1156 6.58739 15.0589 6.79024 14.9198C6.99308 14.7807 7.13238 14.5702 7.17862 14.3328C7.22487 14.0954 7.17443 13.8498 7.03799 13.648C6.76996 13.2765 6.61179 12.8405 6.58074 12.3874C6.54968 11.9344 6.64694 11.4817 6.86189 11.0788C7.07684 10.6759 7.40124 10.3382 7.79972 10.1026C8.19819 9.86698 8.65543 9.74245 9.12157 9.74261H11.5908L11.3108 10.0154C11.217 10.1005 11.1418 10.2032 11.0896 10.3172C11.0374 10.4313 11.0094 10.5544 11.0071 10.6793C11.0049 10.8041 11.0284 10.9281 11.0764 11.0439C11.1245 11.1597 11.1959 11.2649 11.2866 11.3532C11.3772 11.4415 11.4852 11.5111 11.6041 11.5578C11.7229 11.6046 11.8502 11.6276 11.9784 11.6254C12.1066 11.6232 12.233 11.5958 12.3501 11.545C12.4672 11.4942 12.5726 11.4209 12.66 11.3296L14.5692 9.46985C14.7479 9.29551 14.8484 9.05917 14.8484 8.81276C14.8484 8.56635 14.7479 8.33001 14.5692 8.15566L12.66 6.29595ZM17.8556 9.72526C17.7841 9.62359 17.6927 9.53676 17.5865 9.46981C17.4804 9.40287 17.3616 9.35713 17.2371 9.33527C17.1127 9.31341 16.985 9.31586 16.8615 9.34247C16.738 9.36908 16.6212 9.41933 16.5178 9.49029C16.4145 9.56126 16.3266 9.65152 16.2593 9.75585C16.1921 9.86017 16.1468 9.97647 16.126 10.098C16.1053 10.2195 16.1096 10.3438 16.1386 10.4637C16.1676 10.5836 16.2208 10.6967 16.2951 10.7964C16.5631 11.1679 16.7212 11.6038 16.7523 12.0567C16.7834 12.5097 16.6863 12.9622 16.4715 13.3651C16.2567 13.768 15.9325 14.1057 15.5342 14.3414C15.1359 14.5771 14.6788 14.7018 14.2128 14.7018H11.7435L12.0236 14.4291C12.1174 14.344 12.1926 14.2413 12.2448 14.1272C12.2969 14.0132 12.325 13.89 12.3272 13.7652C12.3295 13.6403 12.3059 13.5163 12.2579 13.4005C12.2099 13.2848 12.1384 13.1796 12.0478 13.0913C11.9571 13.003 11.8492 12.9334 11.7303 12.8866C11.6114 12.8398 11.4841 12.8169 11.356 12.8191C11.2278 12.8213 11.1014 12.8486 10.9843 12.8994C10.8672 12.9503 10.7618 13.0235 10.6744 13.1149L8.76519 14.9746C8.58642 15.1489 8.48601 15.3853 8.48601 15.6317C8.48601 15.8781 8.58642 16.1144 8.76519 16.2888L10.6744 18.1485C10.7618 18.2399 10.8672 18.3131 10.9843 18.3639C11.1014 18.4148 11.2278 18.4421 11.356 18.4443C11.4841 18.4465 11.6114 18.4235 11.7303 18.3768C11.8492 18.33 11.9571 18.2604 12.0478 18.1721C12.1384 18.0838 12.2099 17.9786 12.2579 17.8628C12.3059 17.7471 12.3295 17.623 12.3272 17.4982C12.325 17.3733 12.2969 17.2502 12.2448 17.1361C12.1926 17.0221 12.1174 16.9194 12.0236 16.8343L11.7435 16.5615H14.2128C15.0286 16.5614 15.8286 16.3431 16.5258 15.9305C17.2229 15.5178 17.7903 14.9266 18.1661 14.2213C18.5419 13.516 18.7117 12.7237 18.6569 11.9309C18.6022 11.1381 18.325 10.3751 17.8556 9.72526Z" fill="white"/>
<rect x="14" y="14" width="10" height="10" rx="2.66667" fill="#3A141A"/>
<path d="M16.7822 16.2786C16.8484 16.2792 16.9138 16.2935 16.9746 16.3196C17.0354 16.3458 17.0907 16.3834 17.1367 16.431H17.1357L18.6689 17.9622L20.2021 16.431C20.2484 16.3848 20.3029 16.3476 20.3633 16.3226C20.4238 16.2975 20.4892 16.2845 20.5547 16.2845C20.6201 16.2845 20.6847 16.2976 20.7451 16.3226C20.8055 16.3475 20.8609 16.3839 20.9072 16.43C20.9536 16.4763 20.9905 16.5316 21.0156 16.5921C21.0407 16.6525 21.0537 16.7172 21.0537 16.7825C21.0537 16.848 21.0407 16.9135 21.0156 16.9739C20.9906 17.0343 20.9535 17.0889 20.9072 17.1351L19.374 18.6663L20.9082 20.1976C21.0017 20.291 21.0536 20.418 21.0537 20.5501C21.0537 20.6822 21.0016 20.8092 20.9082 20.9026C20.8146 20.9961 20.687 21.0491 20.5547 21.0491C20.4225 21.0491 20.2957 20.996 20.2021 20.9026L18.6689 19.3704L17.1357 20.9026C17.0899 20.9499 17.0351 20.988 16.9746 21.014C16.9139 21.04 16.8483 21.0534 16.7822 21.054C16.7161 21.0546 16.6501 21.0419 16.5889 21.0169C16.5278 20.9919 16.4725 20.9551 16.4258 20.9085C16.3789 20.8617 16.3415 20.8057 16.3164 20.7444C16.304 20.7141 16.2943 20.6828 16.2881 20.6507L16.2793 20.5521C16.2798 20.486 16.2933 20.4204 16.3193 20.3597C16.3455 20.2989 16.384 20.2436 16.4316 20.1976L17.9629 18.6663L16.4307 17.1351C16.3833 17.0892 16.3454 17.0345 16.3193 16.9739C16.2932 16.9132 16.2789 16.8477 16.2783 16.7816C16.2778 16.7154 16.2913 16.6494 16.3164 16.5882C16.3415 16.5272 16.3782 16.4717 16.4248 16.4251C16.4717 16.3783 16.5276 16.3408 16.5889 16.3157C16.6502 16.2907 16.716 16.278 16.7822 16.2786Z" fill="white" stroke="white" stroke-width="0.108571"/>
<defs>
<filter id="filter0_ii_1131_40583" x="0.666341" y="0.666646" width="22.6663" height="22.6663" filterUnits="userSpaceOnUse" color-interpolation-filters="sRGB">
<feFlood flood-opacity="0" result="BackgroundImageFix"/>
<feBlend mode="normal" in="SourceGraphic" in2="BackgroundImageFix" result="shape"/>
<feColorMatrix in="SourceAlpha" type="matrix" values="0 0 0 0 0 0 0 0 0 0 0 0 0 0 0 0 0 0 127 0" result="hardAlpha"/>
<feOffset dx="-0.666667" dy="-0.666667"/>
<feGaussianBlur stdDeviation="0.333333"/>
<feComposite in2="hardAlpha" operator="arithmetic" k2="-1" k3="1"/>
<feColorMatrix type="matrix" values="0 0 0 0 0 0 0 0 0 0 0 0 0 0 0 0 0 0 0.25 0"/>
<feBlend mode="normal" in2="shape" result="effect1_innerShadow_1131_40583"/>
<feColorMatrix in="SourceAlpha" type="matrix" values="0 0 0 0 0 0 0 0 0 0 0 0 0 0 0 0 0 0 127 0" result="hardAlpha"/>
<feOffset dx="0.666667" dy="0.666667"/>
<feGaussianBlur stdDeviation="0.333333"/>
<feComposite in2="hardAlpha" operator="arithmetic" k2="-1" k3="1"/>
<feColorMatrix type="matrix" values="0 0 0 0 1 0 0 0 0 1 0 0 0 0 1 0 0 0 0.25 0"/>
<feBlend mode="normal" in2="effect1_innerShadow_1131_40583" result="effect2_innerShadow_1131_40583"/>
</filter>
<radialGradient id="paint0_radial_1131_40583" cx="0" cy="0" r="1" gradientUnits="userSpaceOnUse" gradientTransform="translate(8.44401 6.96286) rotate(52.275) scale(19.8538 13.0398)">
<stop stop-color="#F0324F"/>
<stop offset="1" stop-color="#BE1E37"/>
</radialGradient>
</defs>
</svg>
