<svg width="14" height="14" viewBox="0 0 14 14" fill="none" xmlns="http://www.w3.org/2000/svg">
<g clip-path="url(#clip0_40_14303)">
<path d="M12.5418 2.62548C12.5419 3.02476 12.425 3.41532 12.2054 3.7488C11.9858 4.08229 11.6733 4.34407 11.3065 4.50176C10.9396 4.65944 10.5346 4.7061 10.1415 4.63596C9.74846 4.56582 9.38457 4.38197 9.09492 4.10715L4.90309 6.52681C4.97736 6.83822 4.97736 7.16274 4.90309 7.47415L9.09492 9.8944C9.45087 9.55704 9.91636 9.35909 10.4063 9.33673C10.8962 9.31437 11.3778 9.4691 11.763 9.77262C12.1482 10.0762 12.4113 10.5082 12.5041 10.9897C12.5969 11.4713 12.5134 11.9702 12.2686 12.3952C12.0239 12.8201 11.6343 13.1428 11.1712 13.3042C10.7081 13.4656 10.2024 13.4549 9.74655 13.2741C9.29069 13.0933 8.91515 12.7544 8.6886 12.3194C8.46204 11.8845 8.39963 11.3825 8.51275 10.9053L4.31917 8.48448C4.02927 8.75851 3.66545 8.94161 3.27265 9.01117C2.87984 9.08072 2.47527 9.03368 2.1089 8.87585C1.74254 8.71803 1.43044 8.45633 1.21115 8.1231C0.991862 7.78986 0.875 7.39969 0.875 7.00077C0.875 6.60186 0.991862 6.21168 1.21115 5.87845C1.43044 5.54521 1.74254 5.28352 2.1089 5.12569C2.47527 4.96787 2.87984 4.92083 3.27265 4.99038C3.66545 5.05993 4.02927 5.24303 4.31917 5.51706L8.51334 3.09565C8.44702 2.81531 8.44078 2.52411 8.49503 2.24119C8.54927 1.95827 8.66278 1.69003 8.82808 1.4541C8.99339 1.21817 9.20675 1.0199 9.45414 0.872305C9.70153 0.724712 9.97736 0.631144 10.2635 0.597749C10.5496 0.564355 10.8396 0.59189 11.1143 0.678545C11.3891 0.7652 11.6423 0.909014 11.8575 1.10053C12.0727 1.29205 12.2449 1.52695 12.3629 1.78977C12.4808 2.0526 12.5418 2.33741 12.5418 2.62548Z" fill="url(#paint0_linear_40_14303)"/>
</g>
<defs>
<linearGradient id="paint0_linear_40_14303" x1="0.875" y1="7.00096" x2="12.5418" y2="7.00096" gradientUnits="userSpaceOnUse">
<stop stop-color="white"/>
<stop offset="1" stop-color="#D6D6D6"/>
</linearGradient>
<clipPath id="clip0_40_14303">
<rect width="14" height="14" fill="white"/>
</clipPath>
</defs>
</svg>
