<svg width="20" height="20" viewBox="0 0 20 20" fill="none" xmlns="http://www.w3.org/2000/svg">
<path d="M2.50012 2.5L17.5001 17.5" stroke="#919192" stroke-width="1.66667" stroke-linecap="round" stroke-linejoin="round"/>
<path fill-rule="evenodd" clip-rule="evenodd" d="M4.49994 5.19187C4.13328 5.46687 3.79744 5.75687 3.49161 6.05187C2.47023 7.04383 1.62462 8.20194 0.990776 9.47687C0.91185 9.63989 0.87085 9.81866 0.87085 9.99978C0.87085 10.1809 0.91185 10.3597 0.990776 10.5227C1.62428 11.7979 2.46962 12.9563 3.49078 13.9485C4.94994 15.3527 7.09828 16.6669 9.99994 16.6669C11.8633 16.6669 13.4166 16.1252 14.6749 15.3652L11.3883 12.0794C10.9074 12.4006 10.33 12.5452 9.75443 12.4884C9.17889 12.4317 8.64082 12.1772 8.23188 11.7683C7.82295 11.3593 7.56843 10.8213 7.51171 10.2457C7.45498 9.67018 7.59954 9.09277 7.92078 8.61187L4.50078 5.19103L4.49994 5.19187ZM17.2216 13.1985C17.9302 12.3876 18.531 11.4885 19.0091 10.5235C19.088 10.3605 19.129 10.1817 19.129 10.0006C19.129 9.81949 19.088 9.64072 19.0091 9.4777C18.3756 8.20254 17.5303 7.04414 16.5091 6.05187C15.0499 4.6477 12.9024 3.33353 9.99994 3.33353C9.21005 3.33124 8.42329 3.43295 7.65994 3.63603L17.2216 13.1985Z" fill="#919192"/>
</svg>
