<svg width="20" height="20" viewBox="0 0 20 20" fill="none" xmlns="http://www.w3.org/2000/svg">
<path d="M17.9173 7.49995C17.9176 8.56962 17.6013 9.61544 17.0081 10.5056C16.4148 11.3957 15.5714 12.0902 14.584 12.5016V12.5C14.584 10.6213 13.8377 8.81966 12.5093 7.49128C11.1809 6.1629 9.37927 5.41662 7.50065 5.41662H7.49898C7.98133 4.2614 8.84881 3.30884 9.95399 2.72084C11.0592 2.13283 12.3339 1.94566 13.5614 2.19113C14.789 2.43661 15.8937 3.09958 16.6878 4.06738C17.4819 5.03518 17.9163 6.24808 17.9173 7.49995ZM5.83398 2.49995C4.94993 2.49995 4.10208 2.85114 3.47696 3.47626C2.85184 4.10139 2.50065 4.94923 2.50065 5.83329V7.08329H4.16732V5.83329C4.16732 5.39126 4.34291 4.96734 4.65547 4.65478C4.96803 4.34222 5.39196 4.16662 5.83398 4.16662H7.08398V2.49995H5.83398ZM15.834 12.9166V14.1666C15.834 14.6086 15.6584 15.0326 15.3458 15.3451C15.0333 15.6577 14.6093 15.8333 14.1673 15.8333H12.9173V17.5H14.1673C15.0514 17.5 15.8992 17.1488 16.5243 16.5236C17.1495 15.8985 17.5007 15.0507 17.5007 14.1666V12.9166H15.834ZM7.50065 17.9166C8.93724 17.9166 10.315 17.3459 11.3308 16.3301C12.3466 15.3143 12.9173 13.9365 12.9173 12.5C12.9173 11.0634 12.3466 9.68561 11.3308 8.66979C10.315 7.65397 8.93724 7.08329 7.50065 7.08329C6.06406 7.08329 4.68631 7.65397 3.67049 8.66979C2.65467 9.68561 2.08398 11.0634 2.08398 12.5C2.08398 13.9365 2.65467 15.3143 3.67049 16.3301C4.68631 17.3459 6.06406 17.9166 7.50065 17.9166ZM7.50065 10.4166L9.58398 12.5L7.50065 14.5833L5.41732 12.5L7.50065 10.4166Z" fill="white"/>
</svg>
