<svg width="20" height="20" viewBox="0 0 20 20" fill="none" xmlns="http://www.w3.org/2000/svg">
<path fill-rule="evenodd" clip-rule="evenodd" d="M3.33348 14.167V4.16699C3.33348 3.50395 3.59687 2.86807 4.06571 2.39923C4.53455 1.93038 5.17044 1.66699 5.83348 1.66699H14.1668C14.8299 1.66699 15.4657 1.93038 15.9346 2.39923C16.4034 2.86807 16.6668 3.50395 16.6668 4.16699V14.167C16.8619 14.1672 17.0507 14.2358 17.2004 14.3609C17.3501 14.486 17.4511 14.6597 17.4859 14.8517C17.5207 15.0436 17.4871 15.2417 17.3909 15.4114C17.2946 15.5811 17.1419 15.7117 16.9593 15.7803L10.2926 18.2803C10.1041 18.351 9.89624 18.351 9.70765 18.2803L3.04098 15.7803C2.85838 15.7117 2.70566 15.5811 2.60942 15.4114C2.51319 15.2417 2.47954 15.0436 2.51435 14.8517C2.54915 14.6597 2.65019 14.486 2.79988 14.3609C2.94956 14.2358 3.13839 14.1672 3.33348 14.167ZM10.8335 5.00033C10.8335 4.77931 10.7457 4.56735 10.5894 4.41107C10.4331 4.25479 10.2212 4.16699 10.0001 4.16699C9.77913 4.16699 9.56717 4.25479 9.41089 4.41107C9.25461 4.56735 9.16681 4.77931 9.16681 5.00033V5.83366H8.33348C7.78094 5.83366 7.25104 6.05315 6.86034 6.44385C6.46964 6.83455 6.25015 7.36446 6.25015 7.91699C6.25015 8.46953 6.46964 8.99943 6.86034 9.39013C7.25104 9.78083 7.78094 10.0003 8.33348 10.0003H11.6668C11.7773 10.0003 11.8833 10.0442 11.9614 10.1224C12.0396 10.2005 12.0835 10.3065 12.0835 10.417C12.0835 10.5275 12.0396 10.6335 11.9614 10.7116C11.8833 10.7898 11.7773 10.8337 11.6668 10.8337H7.50015C7.27913 10.8337 7.06717 10.9215 6.91089 11.0777C6.75461 11.234 6.66681 11.446 6.66681 11.667C6.66681 11.888 6.75461 12.1 6.91089 12.2562C7.06717 12.4125 7.27913 12.5003 7.50015 12.5003H9.16681V13.3337C9.16681 13.5547 9.25461 13.7666 9.41089 13.9229C9.56717 14.0792 9.77913 14.167 10.0001 14.167C10.2212 14.167 10.4331 14.0792 10.5894 13.9229C10.7457 13.7666 10.8335 13.5547 10.8335 13.3337V12.5003H11.6668C12.2193 12.5003 12.7493 12.2808 13.14 11.8901C13.5307 11.4994 13.7501 10.9695 13.7501 10.417C13.7501 9.86446 13.5307 9.33455 13.14 8.94385C12.7493 8.55315 12.2193 8.33366 11.6668 8.33366H8.33348C8.22297 8.33366 8.11699 8.28976 8.03885 8.21162C7.96071 8.13348 7.91681 8.0275 7.91681 7.91699C7.91681 7.80649 7.96071 7.7005 8.03885 7.62236C8.11699 7.54422 8.22297 7.50033 8.33348 7.50033H12.5001C12.7212 7.50033 12.9331 7.41253 13.0894 7.25625C13.2457 7.09997 13.3335 6.88801 13.3335 6.66699C13.3335 6.44598 13.2457 6.23402 13.0894 6.07774C12.9331 5.92146 12.7212 5.83366 12.5001 5.83366H10.8335V5.00033Z" fill="white"/>
</svg>
