<svg width="18" height="18" viewBox="0 0 18 18" fill="none" xmlns="http://www.w3.org/2000/svg">
<path d="M8.99988 9C8.55487 9 8.11986 9.13196 7.74984 9.37919C7.37983 9.62643 7.09145 9.97783 6.92115 10.389C6.75085 10.8001 6.70629 11.2525 6.79311 11.689C6.87993 12.1254 7.09422 12.5263 7.40889 12.841C7.72356 13.1557 8.12447 13.3699 8.56092 13.4568C8.99738 13.5436 9.44978 13.499 9.86092 13.3287C10.272 13.1584 10.6235 12.87 10.8707 12.5C11.1179 12.13 11.2499 11.695 11.2499 11.25C11.2499 10.6533 11.0128 10.081 10.5909 9.65901C10.1689 9.23705 9.59661 9 8.99988 9ZM8.99988 12C8.85154 12 8.70654 11.956 8.5832 11.8736C8.45986 11.7912 8.36373 11.6741 8.30697 11.537C8.2502 11.4 8.23535 11.2492 8.26429 11.1037C8.29323 10.9582 8.36466 10.8246 8.46955 10.7197C8.57444 10.6148 8.70807 10.5433 8.85356 10.5144C8.99905 10.4855 9.14985 10.5003 9.28689 10.5571C9.42393 10.6139 9.54107 10.71 9.62348 10.8333C9.70589 10.9567 9.74988 11.1017 9.74988 11.25C9.74988 11.4489 9.67086 11.6397 9.53021 11.7803C9.38956 11.921 9.19879 12 8.99988 12ZM8.46738 7.2825C8.53871 7.35078 8.62281 7.4043 8.71488 7.44C8.80465 7.47968 8.90172 7.50017 8.99988 7.50017C9.09803 7.50017 9.1951 7.47968 9.28488 7.44C9.37694 7.4043 9.46105 7.35078 9.53238 7.2825L11.2499 5.595C11.3951 5.44979 11.4767 5.25285 11.4767 5.0475C11.4767 4.84215 11.3951 4.64521 11.2499 4.5C11.1047 4.35479 10.9077 4.27322 10.7024 4.27322C10.497 4.27322 10.3001 4.35479 10.1549 4.5L9.74988 4.9425V2.25C9.74988 2.05109 9.67086 1.86032 9.53021 1.71967C9.38956 1.57902 9.19879 1.5 8.99988 1.5C8.80097 1.5 8.6102 1.57902 8.46955 1.71967C8.3289 1.86032 8.24988 2.05109 8.24988 2.25V4.9425L7.84488 4.5C7.69967 4.35479 7.50273 4.27322 7.29738 4.27322C7.09203 4.27322 6.89508 4.35479 6.74988 4.5C6.60467 4.64521 6.5231 4.84215 6.5231 5.0475C6.5231 5.25285 6.60467 5.44979 6.74988 5.595L8.46738 7.2825ZM14.2499 11.25C14.2499 11.1017 14.2059 10.9567 14.1235 10.8333C14.0411 10.71 13.9239 10.6139 13.7869 10.5571C13.6498 10.5003 13.499 10.4855 13.3536 10.5144C13.2081 10.5433 13.0744 10.6148 12.9695 10.7197C12.8647 10.8246 12.7932 10.9582 12.7643 11.1037C12.7353 11.2492 12.7502 11.4 12.807 11.537C12.8637 11.6741 12.9599 11.7912 13.0832 11.8736C13.2065 11.956 13.3515 12 13.4999 12C13.6988 12 13.8896 11.921 14.0302 11.7803C14.1709 11.6397 14.2499 11.4489 14.2499 11.25ZM14.9999 6H12.7499C12.551 6 12.3602 6.07902 12.2195 6.21967C12.0789 6.36032 11.9999 6.55109 11.9999 6.75C11.9999 6.94891 12.0789 7.13968 12.2195 7.28033C12.3602 7.42098 12.551 7.5 12.7499 7.5H14.9999C15.1988 7.5 15.3896 7.57902 15.5302 7.71967C15.6709 7.86032 15.7499 8.05109 15.7499 8.25V14.25C15.7499 14.4489 15.6709 14.6397 15.5302 14.7803C15.3896 14.921 15.1988 15 14.9999 15H2.99988C2.80097 15 2.6102 14.921 2.46955 14.7803C2.3289 14.6397 2.24988 14.4489 2.24988 14.25V8.25C2.24988 8.05109 2.3289 7.86032 2.46955 7.71967C2.6102 7.57902 2.80097 7.5 2.99988 7.5H5.24988C5.44879 7.5 5.63956 7.42098 5.78021 7.28033C5.92086 7.13968 5.99988 6.94891 5.99988 6.75C5.99988 6.55109 5.92086 6.36032 5.78021 6.21967C5.63956 6.07902 5.44879 6 5.24988 6H2.99988C2.40314 6 1.83084 6.23705 1.40889 6.65901C0.986931 7.08097 0.749878 7.65326 0.749878 8.25V14.25C0.749878 14.8467 0.986931 15.419 1.40889 15.841C1.83084 16.2629 2.40314 16.5 2.99988 16.5H14.9999C15.5966 16.5 16.1689 16.2629 16.5909 15.841C17.0128 15.419 17.2499 14.8467 17.2499 14.25V8.25C17.2499 7.65326 17.0128 7.08097 16.5909 6.65901C16.1689 6.23705 15.5966 6 14.9999 6ZM3.74988 11.25C3.74988 11.3983 3.79386 11.5433 3.87628 11.6667C3.95869 11.79 4.07582 11.8861 4.21287 11.9429C4.34991 11.9997 4.50071 12.0145 4.6462 11.9856C4.79168 11.9566 4.92532 11.8852 5.03021 11.7803C5.1351 11.6754 5.20653 11.5418 5.23547 11.3963C5.26441 11.2508 5.24955 11.1 5.19279 10.963C5.13602 10.8259 5.03989 10.7088 4.91656 10.6264C4.79322 10.544 4.64821 10.5 4.49988 10.5C4.30097 10.5 4.1102 10.579 3.96955 10.7197C3.8289 10.8603 3.74988 11.0511 3.74988 11.25Z" fill="white"/>
</svg>
