<svg width="41" height="14" viewBox="0 0 41 14" fill="none" xmlns="http://www.w3.org/2000/svg">
<g clip-path="url(#clip0_40_14838)">
<path d="M28.9541 10.529V0.175781H31.3339V10.529H28.9541Z" fill="#F7A600"/>
<path d="M4.58134 13.3164H0V3.36133H4.39711C6.53414 3.36133 7.77933 4.45188 7.77933 6.15777C7.77933 7.262 6.97962 7.97559 6.4261 8.21319C7.08681 8.49268 7.93254 9.12172 7.93254 10.4506C7.93254 12.3096 6.53414 13.3164 4.58134 13.3164ZM4.22796 5.09539H2.13701V7.38841H4.22796C5.13488 7.38841 5.64232 6.92693 5.64232 6.24152C5.64232 5.55687 5.13488 5.09539 4.22796 5.09539ZM4.36613 9.13619H2.13701V11.583H4.36613C5.33498 11.583 5.79554 11.0241 5.79554 10.3524C5.79554 9.68147 5.33413 9.13619 4.36613 9.13619Z" fill="white"/>
<path d="M14.1528 9.23366V13.3164H12.0249V9.23366L8.72559 3.36133H11.0534L13.104 7.37394L15.1236 3.36133H17.4514L14.1528 9.23366Z" fill="white"/>
<path d="M23.6194 13.3164H19.0381V3.36133H23.4352C25.5722 3.36133 26.8174 4.45188 26.8174 6.15777C26.8174 7.262 26.0177 7.97559 25.4641 8.21319C26.1248 8.49268 26.9706 9.12172 26.9706 10.4506C26.9706 12.3096 25.5722 13.3164 23.6194 13.3164ZM23.266 5.09539H21.1751V7.38841H23.266C24.1729 7.38841 24.6804 6.92693 24.6804 6.24152C24.6804 5.55687 24.1729 5.09539 23.266 5.09539ZM23.4042 9.13619H21.1751V11.583H23.4042C24.373 11.583 24.8336 11.0241 24.8336 10.3524C24.8336 9.68147 24.373 9.13619 23.4042 9.13619Z" fill="white"/>
<path d="M37.9651 5.09526V13.3164H35.8073V5.09526H32.9199V3.36133H40.8525V5.09526H37.9651Z" fill="white"/>
</g>
<defs>
<clipPath id="clip0_40_14838">
<rect width="40.9824" height="13.3193" fill="white"/>
</clipPath>
</defs>
</svg>
