<svg width="153" height="18" viewBox="0 0 153 18" fill="none" xmlns="http://www.w3.org/2000/svg">
<g clip-path="url(#clip0_43_5399)">
<path d="M96.6749 4.97266H92.4546V14.2431H96.6749V4.97266Z" fill="white"/>
<path d="M137.663 11.2666L137.967 11.7822C137.358 13.531 136.39 14.8433 135.063 15.7178C133.93 16.4727 132.599 16.9009 131.071 17.0039V13.2246C131.658 13.1333 132.177 12.9276 132.626 12.6016C133.267 12.1332 133.721 11.4778 133.986 10.6348L137.663 11.2666ZM39.0679 10.0723C39.0679 11.4776 38.7872 12.7038 38.2251 13.75C37.6786 14.7961 36.8738 15.6078 35.812 16.1855C34.9661 16.6334 33.9861 16.9021 32.8726 16.9932V13.1748C33.3503 13.0491 33.7446 12.8116 34.0552 12.4609C34.5548 11.9144 34.8051 11.1262 34.8052 10.0957V0.398438H39.0679V10.0723ZM29.1831 10.0957C29.1831 11.1261 29.4257 11.9145 29.9097 12.4609C30.2209 12.8014 30.608 13.0357 31.0708 13.1641V16.9893C29.9759 16.8947 29.0108 16.6273 28.1763 16.1855C27.1147 15.6079 26.3028 14.7959 25.7407 13.75C25.1942 12.7038 24.9204 11.4776 24.9204 10.0723V0.398438H29.1831V10.0957ZM129.269 3.99707C128.411 4.16104 127.703 4.56221 127.146 5.2002C126.396 6.059 126.022 7.19137 126.022 8.59668C126.022 10.0019 126.405 11.1344 127.169 11.9932C127.726 12.6055 128.427 12.9971 129.269 13.1729V16.9727C128.113 16.8505 127.03 16.5262 126.022 15.998C124.726 15.2954 123.688 14.3038 122.907 13.0234C122.142 11.743 121.758 10.2674 121.758 8.59668C121.759 6.92585 122.142 5.44936 122.907 4.16895C123.688 2.88881 124.726 1.90473 126.022 1.21777C127.03 0.677659 128.113 0.345545 129.269 0.220703V3.99707ZM4.57275 16.7949H0.310059V0.398438H4.57275V16.7949ZM11.8237 13.2344H13.4517V16.7949H7.56104V0.398438H11.8237V13.2344ZM20.5532 13.2344H22.1821V16.7949H16.2905V0.398438H20.5532V13.2344ZM50.6958 11.5947L55.3335 0.398438H59.3149V16.7949H55.3804V8.12793H55.146L54.7476 11.1494L52.3823 16.7949H49.0093L46.6431 11.1494L46.2456 8.12793H46.0112V16.7949H42.0757V0.398438H46.0581L50.6958 11.5947ZM66.5825 16.7949H62.3198V0.398438H66.5825V16.7949ZM79.3618 8.9248L79.7827 10.915H80.0171V0.398438H84.2808V16.7949H79.7358L74.4897 8.26855L74.0679 6.27734H73.8335V16.7949H69.5708V0.398438H74.1147L79.3618 8.9248ZM102.688 16.7949H98.2378L97.3237 14.2412H95.2349V10.6807H96.0591L94.4888 5.05957H94.3022L92.7329 10.6807H93.3853V14.2412H91.4673L90.5542 16.7949H86.104L92.522 0.398438H96.27L102.688 16.7949ZM114.313 8.9248L114.735 10.915H114.969V0.398438H119.232V16.7949H114.688L109.441 8.26855L109.02 6.27734H108.786V16.7949H104.522V0.398438H109.067L114.313 8.9248ZM151.933 3.95898H144.79V6.81641H151.301V10.377H144.79V13.2344H152.191V16.7949H140.527V0.398438H151.933V3.95898ZM131.071 0.189453C132.135 0.257707 133.108 0.474686 133.986 0.84375C135.063 1.28097 135.938 1.89807 136.609 2.69434C137.296 3.49065 137.757 4.39625 137.992 5.41113L137.686 5.92578L133.986 6.55859C133.767 5.73105 133.321 5.0827 132.65 4.61426C132.198 4.29149 131.671 4.08265 131.071 3.98242V0.189453Z" fill="#4772CA"/>
</g>
<defs>
<clipPath id="clip0_43_5399">
<rect width="152.25" height="17.5673" fill="white"/>
</clipPath>
</defs>
</svg>
