<svg width="39" height="12" viewBox="0 0 39 12" fill="none" xmlns="http://www.w3.org/2000/svg">
<g clip-path="url(#clip0_40_14908)">
<path d="M11.2662 0H0.256609C0.187463 0 0.122927 0.0275997 0.0752925 0.0751326C0.0276585 0.122666 0 0.188598 0 0.256064V11.2438C0 11.3113 0.0276585 11.3772 0.0752925 11.4248C0.122927 11.4723 0.189 11.4999 0.256609 11.4999H11.2678C11.3354 11.4999 11.4014 11.4723 11.4491 11.4248C11.4967 11.3772 11.5244 11.3113 11.5244 11.2438V0.256064C11.5244 0.188598 11.4967 0.122666 11.4491 0.0751326C11.3999 0.0275997 11.3354 0 11.2662 0ZM7.68137 7.41053C7.68137 7.478 7.65371 7.54393 7.60608 7.59146C7.55845 7.639 7.49237 7.6666 7.42476 7.6666H4.09653C4.02892 7.6666 3.96284 7.639 3.91521 7.59146C3.86758 7.54393 3.83992 7.478 3.83992 7.41053V4.08936C3.83992 4.0219 3.86758 3.95596 3.91521 3.90843C3.96284 3.8609 4.02892 3.8333 4.09653 3.8333H7.42476C7.49237 3.8333 7.55845 3.8609 7.60608 3.90843C7.65371 3.95596 7.68137 4.0219 7.68137 4.08936V7.41053Z" fill="white"/>
<path d="M34.3202 3.83203H30.992C30.8506 3.83203 30.7354 3.94703 30.7354 4.0881V7.40926C30.7354 7.55033 30.8506 7.66533 30.992 7.66533H34.3202C34.4616 7.66533 34.5768 7.55033 34.5768 7.40926V4.0881C34.5753 3.94703 34.4616 3.83203 34.3202 3.83203Z" fill="white"/>
<path d="M30.4764 0.00195312H27.1482C27.0068 0.00195312 26.8916 0.116952 26.8916 0.258017V3.57919C26.8916 3.72025 27.0068 3.83525 27.1482 3.83525H30.4764C30.6178 3.83525 30.7331 3.72025 30.7331 3.57919V0.256484C30.7331 0.115419 30.6178 0.00195312 30.4764 0.00195312Z" fill="white"/>
<path d="M38.1581 0.00195312H34.8299C34.6885 0.00195312 34.5732 0.116952 34.5732 0.258017V3.57919C34.5732 3.72025 34.6885 3.83525 34.8299 3.83525H38.1581C38.2995 3.83525 38.4147 3.72025 38.4147 3.57919V0.256484C38.4147 0.115419 38.2995 0.00195312 38.1581 0.00195312Z" fill="white"/>
<path d="M30.4764 7.66602H27.1482C27.0068 7.66602 26.8916 7.78101 26.8916 7.92208V11.2432C26.8916 11.3843 27.0068 11.4993 27.1482 11.4993H30.4764C30.6178 11.4993 30.7331 11.3843 30.7331 11.2432V7.92208C30.7331 7.77948 30.6178 7.66602 30.4764 7.66602Z" fill="white"/>
<path d="M38.1581 7.66602H34.8299C34.6885 7.66602 34.5732 7.78101 34.5732 7.92208V11.2432C34.5732 11.3843 34.6885 11.4993 34.8299 11.4993H38.1581C38.2995 11.4993 38.4147 11.3843 38.4147 11.2432V7.92208C38.4147 7.77948 38.2995 7.66602 38.1581 7.66602Z" fill="white"/>
<path d="M24.7089 0H21.3806C21.2393 0 21.124 0.114999 21.124 0.256064V3.57723C21.124 3.7183 21.2393 3.8333 21.3806 3.8333H24.7089C24.8502 3.8333 24.9655 3.7183 24.9655 3.57723V0.254531C24.9655 0.113466 24.8502 0 24.7089 0Z" fill="white"/>
<path d="M24.7089 7.66602H21.3806C21.2393 7.66602 21.124 7.78101 21.124 7.92208V11.2432C21.124 11.3843 21.2393 11.4993 21.3806 11.4993H24.7089C24.8502 11.4993 24.9655 11.3843 24.9655 11.2432V7.92208C24.9655 7.77948 24.8502 7.66602 24.7089 7.66602Z" fill="white"/>
<path d="M21.1247 4.08629C21.1247 4.01883 21.0971 3.95289 21.0494 3.90536C21.0018 3.85783 20.9357 3.83023 20.8681 3.83023H17.2833V0.256064C17.2833 0.188598 17.2556 0.122665 17.208 0.0751326C17.1604 0.0275997 17.0943 0 17.0267 0H13.7C13.6324 0 13.5663 0.0275997 13.5187 0.0751326C13.471 0.122665 13.4434 0.188598 13.4434 0.256064V11.2377C13.4434 11.3052 13.471 11.3711 13.5187 11.4186C13.5663 11.4662 13.6324 11.4938 13.7 11.4938H17.0282C17.0958 11.4938 17.1619 11.4662 17.2095 11.4186C17.2572 11.3711 17.2848 11.3052 17.2848 11.2377V7.66352H20.8697C20.9373 7.66352 21.0033 7.63592 21.051 7.58839C21.0986 7.54086 21.1263 7.47493 21.1263 7.40746L21.1247 4.08629Z" fill="white"/>
</g>
<defs>
<clipPath id="clip0_40_14908">
<rect width="38.4145" height="11.5244" fill="white"/>
</clipPath>
</defs>
</svg>
