<svg width="32" height="32" viewBox="0 0 32 32" fill="none" xmlns="http://www.w3.org/2000/svg">
<path d="M9.95127 1.13535H8.81592V0.567676C8.81592 0.245993 9.06191 0 9.38359 0C9.70528 0 9.95127 0.245993 9.95127 0.567676V1.13535Z" fill="white"/>
<path d="M13.7977 1.13535C14.1112 1.13535 14.3653 0.881194 14.3653 0.567676C14.3653 0.254157 14.1112 0 13.7977 0C13.4841 0 13.23 0.254157 13.23 0.567676C13.23 0.881194 13.4841 1.13535 13.7977 1.13535Z" fill="white"/>
<path d="M17.669 1.13535H16.5337V0.567676C16.5337 0.245993 16.7797 0 17.1014 0C17.423 0 17.669 0.245993 17.669 0.567676V1.13535Z" fill="white"/>
<path d="M19.8741 1.13535H18.7388V0.567676C18.7388 0.245993 18.9848 0 19.3064 0H19.8741V1.13535Z" fill="white"/>
<path d="M20.4109 1.13535H19.8433V0H20.4109C20.7326 0 20.9786 0.245993 20.9786 0.567676C20.9786 0.889359 20.7326 1.13535 20.4109 1.13535Z" fill="white"/>
<path d="M22.6131 1.13535C22.9266 1.13535 23.1808 0.881194 23.1808 0.567676C23.1808 0.254157 22.9266 0 22.6131 0C22.2996 0 22.0454 0.254157 22.0454 0.567676C22.0454 0.881194 22.2996 1.13535 22.6131 1.13535Z" fill="white"/>
<path d="M9.95127 1.10352H8.81592V2.23887H9.95127V1.10352Z" fill="white"/>
<path d="M11.0587 1.10352H9.92334V2.23887H11.0587V1.10352Z" fill="white"/>
<path d="M12.1632 1.10352H11.0278V2.23887H12.1632V1.10352Z" fill="white"/>
<path d="M12.6922 2.23887H12.1245V1.10352H12.6922C13.0139 1.10352 13.2599 1.34951 13.2599 1.67119C13.2599 1.99287 13.0139 2.23887 12.6922 2.23887Z" fill="white"/>
<path d="M16.5694 2.23887H16.0018C15.6801 2.23887 15.4341 1.99287 15.4341 1.67119C15.4341 1.34951 15.6801 1.10352 16.0018 1.10352H16.5694V2.23887Z" fill="white"/>
<path d="M17.669 1.10352H16.5337V2.23887H17.669V1.10352Z" fill="white"/>
<path d="M18.7735 1.10352H17.6382V2.23887H18.7735V1.10352Z" fill="white"/>
<path d="M19.3064 2.23887H18.7388V1.10352H19.8741V1.67119C19.8741 1.99287 19.6281 2.23887 19.3064 2.23887Z" fill="white"/>
<path d="M22.0841 2.23887H20.9487V1.67119C20.9487 1.34951 21.1947 1.10352 21.5164 1.10352C21.8381 1.10352 22.0841 1.34951 22.0841 1.67119V2.23887Z" fill="white"/>
<path d="M9.38359 3.34043C9.06191 3.34043 8.81592 3.09444 8.81592 2.77275V2.20508H9.95127V2.77275C9.95127 3.09444 9.70528 3.34043 9.38359 3.34043Z" fill="white"/>
<path d="M17.1014 3.34043C16.7797 3.34043 16.5337 3.09444 16.5337 2.77275V2.20508H17.669V2.77275C17.669 3.09444 17.423 3.34043 17.1014 3.34043Z" fill="white"/>
<path d="M20.9786 3.34043H20.4109C20.0893 3.34043 19.8433 3.09444 19.8433 2.77275C19.8433 2.45107 20.0893 2.20508 20.4109 2.20508H20.9786V3.34043Z" fill="white"/>
<path d="M22.0841 2.20508H20.9487V3.34043H22.0841V2.20508Z" fill="white"/>
<path d="M22.6131 3.34043H22.0454V2.20508H22.6131C22.9348 2.20508 23.1808 2.45107 23.1808 2.77275C23.1808 3.09444 22.9348 3.34043 22.6131 3.34043Z" fill="white"/>
<path d="M12.1632 4.44395H11.0278V3.87627C11.0278 3.55459 11.2738 3.30859 11.5955 3.30859C11.9172 3.30859 12.1632 3.55459 12.1632 3.87627V4.44395Z" fill="white"/>
<path d="M15.4669 4.44395H14.3315V3.87627C14.3315 3.55459 14.5775 3.30859 14.8992 3.30859H15.4669V4.44395Z" fill="white"/>
<path d="M16.0018 4.44395H15.4341V3.30859H16.0018C16.3234 3.30859 16.5694 3.55459 16.5694 3.87627C16.5694 4.19795 16.3234 4.44395 16.0018 4.44395Z" fill="white"/>
<path d="M18.7735 4.44395H17.6382V3.87627C17.6382 3.55459 17.8842 3.30859 18.2059 3.30859H18.7735V4.44395Z" fill="white"/>
<path d="M19.3064 4.44395H18.7388V3.30859H19.3064C19.6281 3.30859 19.8741 3.55459 19.8741 3.87627C19.8741 4.19795 19.6281 4.44395 19.3064 4.44395Z" fill="white"/>
<path d="M22.0841 3.30859H20.9487V4.44395H22.0841V3.30859Z" fill="white"/>
<path d="M11.0587 5.54551H9.92334V4.97783C9.92334 4.65615 10.1693 4.41016 10.491 4.41016H11.0587V5.54551Z" fill="white"/>
<path d="M12.1632 4.41016H11.0278V5.54551H12.1632V4.41016Z" fill="white"/>
<path d="M13.2599 4.41016H12.1245V5.54551H13.2599V4.41016Z" fill="white"/>
<path d="M14.3653 4.41016H13.23V5.54551H14.3653V4.41016Z" fill="white"/>
<path d="M14.8992 5.54551H14.3315V4.41016H15.4669V4.97783C15.4669 5.29951 15.2209 5.54551 14.8992 5.54551Z" fill="white"/>
<path d="M18.7735 4.41016H17.6382V5.54551H18.7735V4.41016Z" fill="white"/>
<path d="M20.9786 5.54551H19.8433V4.97783C19.8433 4.65615 20.0893 4.41016 20.4109 4.41016H20.9786V5.54551Z" fill="white"/>
<path d="M21.5164 5.54551H20.9487V4.41016H22.0841V4.97783C22.0841 5.29951 21.8381 5.54551 21.5164 5.54551Z" fill="white"/>
<path d="M9.95127 6.64707H8.81592V6.07939C8.81592 5.75771 9.06191 5.51172 9.38359 5.51172H9.95127V6.64707Z" fill="white"/>
<path d="M10.491 6.64707H9.92334V5.51172H11.0587V6.07939C11.0587 6.40108 10.8127 6.64707 10.491 6.64707Z" fill="white"/>
<path d="M14.3653 5.51172H13.23V6.64707H14.3653V5.51172Z" fill="white"/>
<path d="M16.5694 6.64707H15.4341V6.07939C15.4341 5.75771 15.6801 5.51172 16.0018 5.51172H16.5694V6.64707Z" fill="white"/>
<path d="M17.669 5.51172H16.5337V6.64707H17.669V5.51172Z" fill="white"/>
<path d="M18.7735 5.51172H17.6382V6.64707H18.7735V5.51172Z" fill="white"/>
<path d="M20.9786 5.51172H19.8433V6.64707H20.9786V5.51172Z" fill="white"/>
<path d="M9.95127 6.61328H8.81592V7.74863H9.95127V6.61328Z" fill="white"/>
<path d="M11.5955 7.74863C11.909 7.74863 12.1632 7.49448 12.1632 7.18096C12.1632 6.86744 11.909 6.61328 11.5955 6.61328C11.282 6.61328 11.0278 6.86744 11.0278 7.18096C11.0278 7.49448 11.282 7.74863 11.5955 7.74863Z" fill="white"/>
<path d="M14.3653 6.61328H13.23V7.74863H14.3653V6.61328Z" fill="white"/>
<path d="M16.5694 6.61328H15.4341V7.74863H16.5694V6.61328Z" fill="white"/>
<path d="M18.7735 6.61328H17.6382V7.74863H18.7735V6.61328Z" fill="white"/>
<path d="M20.4109 7.74863C20.0893 7.74863 19.8433 7.50264 19.8433 7.18096V6.61328H20.9786V7.18096C20.9786 7.50264 20.7326 7.74863 20.4109 7.74863Z" fill="white"/>
<path d="M22.6131 7.74863C22.9266 7.74863 23.1808 7.49448 23.1808 7.18096C23.1808 6.86744 22.9266 6.61328 22.6131 6.61328C22.2996 6.61328 22.0454 6.86744 22.0454 7.18096C22.0454 7.49448 22.2996 7.74863 22.6131 7.74863Z" fill="white"/>
<path d="M9.95127 7.7168H8.81592V8.85215H9.95127V7.7168Z" fill="white"/>
<path d="M11.0587 8.85215H9.92334V7.7168H10.491C10.8127 7.7168 11.0587 7.96279 11.0587 8.28447V8.85215Z" fill="white"/>
<path d="M13.2599 8.85215H12.6922C12.3705 8.85215 12.1245 8.60616 12.1245 8.28447C12.1245 7.96279 12.3705 7.7168 12.6922 7.7168H13.2599V8.85215Z" fill="white"/>
<path d="M14.3653 7.7168H13.23V8.85215H14.3653V7.7168Z" fill="white"/>
<path d="M15.4669 7.7168H14.3315V8.85215H15.4669V7.7168Z" fill="white"/>
<path d="M16.5694 7.7168H15.4341V8.85215H16.5694V7.7168Z" fill="white"/>
<path d="M17.669 7.7168H16.5337V8.85215H17.669V7.7168Z" fill="white"/>
<path d="M18.7735 7.7168H17.6382V8.85215H18.7735V7.7168Z" fill="white"/>
<path d="M21.5164 8.85215C21.8299 8.85215 22.0841 8.59799 22.0841 8.28447C22.0841 7.97095 21.8299 7.7168 21.5164 7.7168C21.2029 7.7168 20.9487 7.97095 20.9487 8.28447C20.9487 8.59799 21.2029 8.85215 21.5164 8.85215Z" fill="white"/>
<path d="M3.34189 9.95566H2.77422C2.45254 9.95566 2.20654 9.70967 2.20654 9.38799C2.20654 9.06631 2.45254 8.82031 2.77422 8.82031H3.34189V9.95566Z" fill="white"/>
<path d="M4.44346 8.82031H3.30811V9.95566H4.44346V8.82031Z" fill="white"/>
<path d="M4.9793 9.95566H4.41162V8.82031H4.9793C5.30098 8.82031 5.54697 9.06631 5.54697 9.38799C5.54697 9.70967 5.30098 9.95566 4.9793 9.95566Z" fill="white"/>
<path d="M7.18047 9.95566C7.49399 9.95566 7.74814 9.70151 7.74814 9.38799C7.74814 9.07447 7.49399 8.82031 7.18047 8.82031C6.86695 8.82031 6.61279 9.07447 6.61279 9.38799C6.61279 9.70151 6.86695 9.95566 7.18047 9.95566Z" fill="white"/>
<path d="M9.95127 8.82031H8.81592V9.95566H9.95127V8.82031Z" fill="white"/>
<path d="M11.0587 8.82031H9.92334V9.95566H11.0587V8.82031Z" fill="white"/>
<path d="M12.1632 9.95566H11.0278V8.82031H11.5955C11.9172 8.82031 12.1632 9.06631 12.1632 9.38799V9.95566Z" fill="white"/>
<path d="M17.669 8.82031H16.5337V9.95566H17.669V8.82031Z" fill="white"/>
<path d="M18.2059 9.95566H17.6382V8.82031H18.7735V9.38799C18.7735 9.70967 18.5275 9.95566 18.2059 9.95566Z" fill="white"/>
<path d="M20.4109 9.95566C20.7245 9.95566 20.9786 9.70151 20.9786 9.38799C20.9786 9.07447 20.7245 8.82031 20.4109 8.82031C20.0974 8.82031 19.8433 9.07447 19.8433 9.38799C19.8433 9.70151 20.0974 9.95566 20.4109 9.95566Z" fill="white"/>
<path d="M24.2853 9.95566H23.7176C23.3959 9.95566 23.1499 9.70967 23.1499 9.38799C23.1499 9.06631 23.3959 8.82031 23.7176 8.82031H24.2853V9.95566Z" fill="white"/>
<path d="M25.3888 8.82031H24.2534V9.95566H25.3888V8.82031Z" fill="white"/>
<path d="M26.4903 9.95566H25.355V8.82031H25.9227C26.2443 8.82031 26.4903 9.06631 26.4903 9.38799V9.95566Z" fill="white"/>
<path d="M29.795 9.95566H28.6597V9.38799C28.6597 9.06631 28.9057 8.82031 29.2273 8.82031H29.795V9.95566Z" fill="white"/>
<path d="M30.8995 8.82031H29.7642V9.95566H30.8995V8.82031Z" fill="white"/>
<path d="M31.9991 9.95566H30.8638V8.82031H31.4314C31.7531 8.82031 31.9991 9.06631 31.9991 9.38799V9.95566Z" fill="white"/>
<path d="M3.87578 11.0553C3.5541 11.0553 3.30811 10.8093 3.30811 10.4876V9.91992H4.44346V10.4876C4.44346 10.8093 4.19746 11.0553 3.87578 11.0553Z" fill="white"/>
<path d="M8.85361 11.0553H8.28594C7.96425 11.0553 7.71826 10.8093 7.71826 10.4876C7.71826 10.1659 7.96425 9.91992 8.28594 9.91992H8.85361V11.0553Z" fill="white"/>
<path d="M9.95127 9.91992H8.81592V11.0553H9.95127V9.91992Z" fill="white"/>
<path d="M11.0587 9.91992H9.92334V11.0553H11.0587V9.91992Z" fill="white"/>
<path d="M12.1632 9.91992H11.0278V11.0553H12.1632V9.91992Z" fill="white"/>
<path d="M13.7977 11.0553C14.1112 11.0553 14.3653 10.8011 14.3653 10.4876C14.3653 10.1741 14.1112 9.91992 13.7977 9.91992C13.4841 9.91992 13.23 10.1741 13.23 10.4876C13.23 10.8011 13.4841 11.0553 13.7977 11.0553Z" fill="white"/>
<path d="M17.669 9.91992H16.5337V11.0553H17.669V9.91992Z" fill="white"/>
<path d="M19.3064 11.0553C19.62 11.0553 19.8741 10.8011 19.8741 10.4876C19.8741 10.1741 19.62 9.91992 19.3064 9.91992C18.9929 9.91992 18.7388 10.1741 18.7388 10.4876C18.7388 10.8011 18.9929 11.0553 19.3064 11.0553Z" fill="white"/>
<path d="M26.4903 9.91992H25.355V11.0553H26.4903V9.91992Z" fill="white"/>
<path d="M27.587 9.91992H26.4517V11.0553H27.587V9.91992Z" fill="white"/>
<path d="M28.6915 9.91992H27.5562V11.0553H28.6915V9.91992Z" fill="white"/>
<path d="M29.795 9.91992H28.6597V11.0553H29.795V9.91992Z" fill="white"/>
<path d="M31.4314 11.0553C31.1098 11.0553 30.8638 10.8093 30.8638 10.4876V9.91992H31.9991V10.4876C31.9991 10.8093 31.7531 11.0553 31.4314 11.0553Z" fill="white"/>
<path d="M2.23838 12.1588H1.6707C1.34902 12.1588 1.10303 11.9128 1.10303 11.5911C1.10303 11.2694 1.34902 11.0234 1.6707 11.0234H2.23838V12.1588Z" fill="white"/>
<path d="M2.77422 12.1588H2.20654V11.0234H2.77422C3.0959 11.0234 3.34189 11.2694 3.34189 11.5911C3.34189 11.9128 3.0959 12.1588 2.77422 12.1588Z" fill="white"/>
<path d="M5.54697 12.1588H4.9793C4.65761 12.1588 4.41162 11.9128 4.41162 11.5911C4.41162 11.2694 4.65761 11.0234 4.9793 11.0234H5.54697V12.1588Z" fill="white"/>
<path d="M6.64463 11.0234H5.50928V12.1588H6.64463V11.0234Z" fill="white"/>
<path d="M7.18096 12.1588H6.61328V11.0234H7.18096C7.50264 11.0234 7.74863 11.2694 7.74863 11.5911C7.74863 11.9128 7.50264 12.1588 7.18096 12.1588Z" fill="white"/>
<path d="M12.1632 11.0234H11.0278V12.1588H12.1632V11.0234Z" fill="white"/>
<path d="M12.6922 12.1588H12.1245V11.0234H12.6922C13.0139 11.0234 13.2599 11.2694 13.2599 11.5911C13.2599 11.9128 13.0139 12.1588 12.6922 12.1588Z" fill="white"/>
<path d="M15.4669 12.1588H14.8992C14.5775 12.1588 14.3315 11.9128 14.3315 11.5911C14.3315 11.2694 14.5775 11.0234 14.8992 11.0234H15.4669V12.1588Z" fill="white"/>
<path d="M16.5694 11.0234H15.4341V12.1588H16.5694V11.0234Z" fill="white"/>
<path d="M17.669 11.0234H16.5337V12.1588H17.669V11.0234Z" fill="white"/>
<path d="M18.7735 12.1588H17.6382V11.0234H18.2059C18.5275 11.0234 18.7735 11.2694 18.7735 11.5911V12.1588Z" fill="white"/>
<path d="M24.2853 12.1588H23.1499V11.5911C23.1499 11.2694 23.3959 11.0234 23.7176 11.0234H24.2853V12.1588Z" fill="white"/>
<path d="M25.3888 11.0234H24.2534V12.1588H25.3888V11.0234Z" fill="white"/>
<path d="M26.4903 11.0234H25.355V12.1588H26.4903V11.0234Z" fill="white"/>
<path d="M29.2273 12.1588C28.9057 12.1588 28.6597 11.9128 28.6597 11.5911V11.0234H29.795V11.5911C29.795 11.9128 29.549 12.1588 29.2273 12.1588Z" fill="white"/>
<path d="M4.44346 13.2604H3.30811V12.6927C3.30811 12.371 3.5541 12.125 3.87578 12.125C4.19746 12.125 4.44346 12.371 4.44346 12.6927V13.2604Z" fill="white"/>
<path d="M11.0587 13.2604H10.491C10.1693 13.2604 9.92334 13.0144 9.92334 12.6927C9.92334 12.371 10.1693 12.125 10.491 12.125H11.0587V13.2604Z" fill="white"/>
<path d="M11.5955 13.2604H11.0278V12.125H12.1632V12.6927C12.1632 13.0144 11.9172 13.2604 11.5955 13.2604Z" fill="white"/>
<path d="M17.669 13.2604H17.1014C16.7797 13.2604 16.5337 13.0144 16.5337 12.6927V12.125H17.669V13.2604Z" fill="white"/>
<path d="M18.7735 12.125H17.6382V13.2604H18.7735V12.125Z" fill="white"/>
<path d="M19.3064 13.2604H18.7388V12.125H19.3064C19.6281 12.125 19.8741 12.371 19.8741 12.6927C19.8741 13.0144 19.6281 13.2604 19.3064 13.2604Z" fill="white"/>
<path d="M21.5164 13.2604C21.8299 13.2604 22.0841 13.0062 22.0841 12.6927C22.0841 12.3792 21.8299 12.125 21.5164 12.125C21.2029 12.125 20.9487 12.3792 20.9487 12.6927C20.9487 13.0062 21.2029 13.2604 21.5164 13.2604Z" fill="white"/>
<path d="M24.2853 12.125H23.1499V13.2604H24.2853V12.125Z" fill="white"/>
<path d="M25.3888 12.125H24.2534V13.2604H25.3888V12.125Z" fill="white"/>
<path d="M26.4903 12.125H25.355V13.2604H26.4903V12.125Z" fill="white"/>
<path d="M28.1238 13.2604C28.4373 13.2604 28.6915 13.0062 28.6915 12.6927C28.6915 12.3792 28.4373 12.125 28.1238 12.125C27.8103 12.125 27.5562 12.3792 27.5562 12.6927C27.5562 13.0062 27.8103 13.2604 28.1238 13.2604Z" fill="white"/>
<path d="M30.8995 13.2604H29.7642V12.6927C29.7642 12.371 30.0102 12.125 30.3318 12.125C30.6535 12.125 30.8995 12.371 30.8995 12.6927V13.2604Z" fill="white"/>
<path d="M2.23838 14.3639H1.6707C1.34902 14.3639 1.10303 14.1179 1.10303 13.7962C1.10303 13.4745 1.34902 13.2285 1.6707 13.2285H2.23838V14.3639Z" fill="white"/>
<path d="M3.34189 13.2285H2.20654V14.3639H3.34189V13.2285Z" fill="white"/>
<path d="M4.44346 13.2285H3.30811V14.3639H4.44346V13.2285Z" fill="white"/>
<path d="M5.54697 13.2285H4.41162V14.3639H5.54697V13.2285Z" fill="white"/>
<path d="M6.64463 13.2285H5.50928V14.3639H6.64463V13.2285Z" fill="white"/>
<path d="M7.74814 13.2285H6.61279V14.3639H7.74814V13.2285Z" fill="white"/>
<path d="M8.85361 13.2285H7.71826V14.3639H8.85361V13.2285Z" fill="white"/>
<path d="M9.38359 14.3639H8.81592V13.2285H9.38359C9.70528 13.2285 9.95127 13.4745 9.95127 13.7962C9.95127 14.1179 9.70528 14.3639 9.38359 14.3639Z" fill="white"/>
<path d="M15.4669 14.3639H14.8992C14.5775 14.3639 14.3315 14.1179 14.3315 13.7962C14.3315 13.4745 14.5775 13.2285 14.8992 13.2285H15.4669V14.3639Z" fill="white"/>
<path d="M16.0018 14.3639H15.4341V13.2285H16.0018C16.3234 13.2285 16.5694 13.4745 16.5694 13.7962C16.5694 14.1179 16.3234 14.3639 16.0018 14.3639Z" fill="white"/>
<path d="M18.2059 14.3639C17.8842 14.3639 17.6382 14.1179 17.6382 13.7962V13.2285H18.7735V13.7962C18.7735 14.1179 18.5275 14.3639 18.2059 14.3639Z" fill="white"/>
<path d="M23.1808 14.3639H22.0454V13.7962C22.0454 13.4745 22.2914 13.2285 22.6131 13.2285H23.1808V14.3639Z" fill="white"/>
<path d="M24.2853 13.2285H23.1499V14.3639H24.2853V13.2285Z" fill="white"/>
<path d="M25.9227 14.3639C25.601 14.3639 25.355 14.1179 25.355 13.7962V13.2285H26.4903V13.7962C26.4903 14.1179 26.2443 14.3639 25.9227 14.3639Z" fill="white"/>
<path d="M29.795 14.3639H29.2273C28.9057 14.3639 28.6597 14.1179 28.6597 13.7962C28.6597 13.4745 28.9057 13.2285 29.2273 13.2285H29.795V14.3639Z" fill="white"/>
<path d="M30.8995 13.2285H29.7642V14.3639H30.8995V13.2285Z" fill="white"/>
<path d="M31.9991 14.3639H30.8638V13.2285H31.4314C31.7531 13.2285 31.9991 13.4745 31.9991 13.7962V14.3639Z" fill="white"/>
<path d="M3.34189 15.4654H2.77422C2.45254 15.4654 2.20654 15.2194 2.20654 14.8978V14.3301H3.34189V15.4654Z" fill="white"/>
<path d="M4.44346 14.3301H3.30811V15.4654H4.44346V14.3301Z" fill="white"/>
<path d="M5.54697 14.3301H4.41162V15.4654H5.54697V14.3301Z" fill="white"/>
<path d="M6.64463 14.3301H5.50928V15.4654H6.64463V14.3301Z" fill="white"/>
<path d="M8.28594 15.4654C7.96425 15.4654 7.71826 15.2194 7.71826 14.8978V14.3301H8.85361V14.8978C8.85361 15.2194 8.60762 15.4654 8.28594 15.4654Z" fill="white"/>
<path d="M12.1632 15.4654H11.0278V14.8978C11.0278 14.5761 11.2738 14.3301 11.5955 14.3301C11.9172 14.3301 12.1632 14.5761 12.1632 14.8978V15.4654Z" fill="white"/>
<path d="M14.3653 15.4654H13.23V14.8978C13.23 14.5761 13.476 14.3301 13.7977 14.3301C14.1193 14.3301 14.3653 14.5761 14.3653 14.8978V15.4654Z" fill="white"/>
<path d="M17.1014 15.4654C17.4149 15.4654 17.669 15.2113 17.669 14.8978C17.669 14.5842 17.4149 14.3301 17.1014 14.3301C16.7878 14.3301 16.5337 14.5842 16.5337 14.8978C16.5337 15.2113 16.7878 15.4654 17.1014 15.4654Z" fill="white"/>
<path d="M19.8741 15.4654H19.3064C18.9848 15.4654 18.7388 15.2194 18.7388 14.8978C18.7388 14.5761 18.9848 14.3301 19.3064 14.3301H19.8741V15.4654Z" fill="white"/>
<path d="M20.9786 14.3301H19.8433V15.4654H20.9786V14.3301Z" fill="white"/>
<path d="M22.0841 14.3301H20.9487V15.4654H22.0841V14.3301Z" fill="white"/>
<path d="M23.1808 14.3301H22.0454V15.4654H23.1808V14.3301Z" fill="white"/>
<path d="M24.2853 14.3301H23.1499V15.4654H24.2853V14.3301Z" fill="white"/>
<path d="M24.8211 15.4654H24.2534V14.3301H24.8211C25.1428 14.3301 25.3888 14.5761 25.3888 14.8978C25.3888 15.2194 25.1428 15.4654 24.8211 15.4654Z" fill="white"/>
<path d="M27.587 15.4654H27.0193C26.6977 15.4654 26.4517 15.2194 26.4517 14.8978C26.4517 14.5761 26.6977 14.3301 27.0193 14.3301H27.587V15.4654Z" fill="white"/>
<path d="M28.1238 15.4654H27.5562V14.3301H28.1238C28.4455 14.3301 28.6915 14.5761 28.6915 14.8978C28.6915 15.2194 28.4455 15.4654 28.1238 15.4654Z" fill="white"/>
<path d="M30.8995 15.4654H30.3318C30.0102 15.4654 29.7642 15.2194 29.7642 14.8978V14.3301H30.8995V15.4654Z" fill="white"/>
<path d="M31.4314 15.4654H30.8638V14.3301H31.9991V14.8978C31.9991 15.2194 31.7531 15.4654 31.4314 15.4654Z" fill="white"/>
<path d="M5.54697 16.567H4.9793C4.65761 16.567 4.41162 16.321 4.41162 15.9993V15.4316H5.54697V16.567Z" fill="white"/>
<path d="M6.64463 15.4316H5.50928V16.567H6.64463V15.4316Z" fill="white"/>
<path d="M7.18096 16.567H6.61328V15.4316H7.18096C7.50264 15.4316 7.74863 15.6776 7.74863 15.9993C7.74863 16.321 7.50264 16.567 7.18096 16.567Z" fill="white"/>
<path d="M9.95127 16.567H8.81592V15.9993C8.81592 15.6776 9.06191 15.4316 9.38359 15.4316C9.70528 15.4316 9.95127 15.6776 9.95127 15.9993V16.567Z" fill="white"/>
<path d="M11.5955 16.567C11.2738 16.567 11.0278 16.321 11.0278 15.9993V15.4316H12.1632V15.9993C12.1632 16.321 11.9172 16.567 11.5955 16.567Z" fill="white"/>
<path d="M14.3653 15.4316H13.23V16.567H14.3653V15.4316Z" fill="white"/>
<path d="M16.0018 16.567C16.3153 16.567 16.5694 16.3128 16.5694 15.9993C16.5694 15.6858 16.3153 15.4316 16.0018 15.4316C15.6882 15.4316 15.4341 15.6858 15.4341 15.9993C15.4341 16.3128 15.6882 16.567 16.0018 16.567Z" fill="white"/>
<path d="M20.9786 15.4316H19.8433V16.567H20.9786V15.4316Z" fill="white"/>
<path d="M23.1808 16.567H22.6131C22.2914 16.567 22.0454 16.321 22.0454 15.9993V15.4316H23.1808V16.567Z" fill="white"/>
<path d="M24.2853 15.4316H23.1499V16.567H24.2853V15.4316Z" fill="white"/>
<path d="M25.9227 16.567C26.2362 16.567 26.4903 16.3128 26.4903 15.9993C26.4903 15.6858 26.2362 15.4316 25.9227 15.4316C25.6091 15.4316 25.355 15.6858 25.355 15.9993C25.355 16.3128 25.6091 16.567 25.9227 16.567Z" fill="white"/>
<path d="M2.23838 17.6686H1.6707C1.34902 17.6686 1.10303 17.4226 1.10303 17.1009C1.10303 16.7792 1.34902 16.5332 1.6707 16.5332H2.23838V17.6686Z" fill="white"/>
<path d="M3.34189 17.6686H2.20654V16.5332H2.77422C3.0959 16.5332 3.34189 16.7792 3.34189 17.1009V17.6686Z" fill="white"/>
<path d="M6.64463 16.5332H5.50928V17.6686H6.64463V16.5332Z" fill="white"/>
<path d="M8.85361 17.6686H7.71826V17.1009C7.71826 16.7792 7.96425 16.5332 8.28594 16.5332H8.85361V17.6686Z" fill="white"/>
<path d="M9.95127 16.5332H8.81592V17.6686H9.95127V16.5332Z" fill="white"/>
<path d="M11.0587 17.6686H9.92334V16.5332H10.491C10.8127 16.5332 11.0587 16.7792 11.0587 17.1009V17.6686Z" fill="white"/>
<path d="M13.7977 17.6686C13.476 17.6686 13.23 17.4226 13.23 17.1009V16.5332H14.3653V17.1009C14.3653 17.4226 14.1193 17.6686 13.7977 17.6686Z" fill="white"/>
<path d="M17.1014 17.6686C17.4149 17.6686 17.669 17.4144 17.669 17.1009C17.669 16.7874 17.4149 16.5332 17.1014 16.5332C16.7878 16.5332 16.5337 16.7874 16.5337 17.1009C16.5337 17.4144 16.7878 17.6686 17.1014 17.6686Z" fill="white"/>
<path d="M20.4109 17.6686C20.0893 17.6686 19.8433 17.4226 19.8433 17.1009V16.5332H20.9786V17.1009C20.9786 17.4226 20.7326 17.6686 20.4109 17.6686Z" fill="white"/>
<path d="M24.2853 16.5332H23.1499V17.6686H24.2853V16.5332Z" fill="white"/>
<path d="M27.587 17.6686H27.0193C26.6977 17.6686 26.4517 17.4226 26.4517 17.1009C26.4517 16.7792 26.6977 16.5332 27.0193 16.5332H27.587V17.6686Z" fill="white"/>
<path d="M28.6915 17.6686H27.5562V16.5332H28.1238C28.4455 16.5332 28.6915 16.7792 28.6915 17.1009V17.6686Z" fill="white"/>
<path d="M2.77422 18.7721C2.45254 18.7721 2.20654 18.5261 2.20654 18.2044V17.6367H3.34189V18.2044C3.34189 18.5261 3.0959 18.7721 2.77422 18.7721Z" fill="white"/>
<path d="M6.64463 18.7721H6.07695C5.75527 18.7721 5.50928 18.5261 5.50928 18.2044V17.6367H6.64463V18.7721Z" fill="white"/>
<path d="M7.74814 17.6367H6.61279V18.7721H7.74814V17.6367Z" fill="white"/>
<path d="M8.28594 18.7721H7.71826V17.6367H8.85361V18.2044C8.85361 18.5261 8.60762 18.7721 8.28594 18.7721Z" fill="white"/>
<path d="M10.491 18.7721C10.1693 18.7721 9.92334 18.5261 9.92334 18.2044V17.6367H11.0587V18.2044C11.0587 18.5261 10.8127 18.7721 10.491 18.7721Z" fill="white"/>
<path d="M13.2599 18.7721H12.1245V18.2044C12.1245 17.8827 12.3705 17.6367 12.6922 17.6367C13.0139 17.6367 13.2599 17.8827 13.2599 18.2044V18.7721Z" fill="white"/>
<path d="M15.4669 18.7721H14.8992C14.5775 18.7721 14.3315 18.5261 14.3315 18.2044C14.3315 17.8827 14.5775 17.6367 14.8992 17.6367H15.4669V18.7721Z" fill="white"/>
<path d="M16.0018 18.7721H15.4341V17.6367H16.0018C16.3234 17.6367 16.5694 17.8827 16.5694 18.2044C16.5694 18.5261 16.3234 18.7721 16.0018 18.7721Z" fill="white"/>
<path d="M18.2059 18.7721C18.5194 18.7721 18.7735 18.5179 18.7735 18.2044C18.7735 17.8909 18.5194 17.6367 18.2059 17.6367C17.8923 17.6367 17.6382 17.8909 17.6382 18.2044C17.6382 18.5179 17.8923 18.7721 18.2059 18.7721Z" fill="white"/>
<path d="M23.7176 18.7721C23.3959 18.7721 23.1499 18.5261 23.1499 18.2044V17.6367H24.2853V18.2044C24.2853 18.5261 24.0393 18.7721 23.7176 18.7721Z" fill="white"/>
<path d="M28.6915 18.7721H28.1238C27.8021 18.7721 27.5562 18.5261 27.5562 18.2044V17.6367H28.6915V18.7721Z" fill="white"/>
<path d="M29.795 17.6367H28.6597V18.7721H29.795V17.6367Z" fill="white"/>
<path d="M30.8995 17.6367H29.7642V18.7721H30.8995V17.6367Z" fill="white"/>
<path d="M31.9991 18.7721H30.8638V17.6367H31.4314C31.7531 17.6367 31.9991 17.8827 31.9991 18.2044V18.7721Z" fill="white"/>
<path d="M1.13584 19.8756H0.000488281V19.3079C0.000488281 18.9862 0.246481 18.7402 0.568164 18.7402C0.889847 18.7402 1.13584 18.9862 1.13584 19.3079V19.8756Z" fill="white"/>
<path d="M5.54697 19.8756H4.41162V19.3079C4.41162 18.9862 4.65761 18.7402 4.9793 18.7402C5.30098 18.7402 5.54697 18.9862 5.54697 19.3079V19.8756Z" fill="white"/>
<path d="M12.1632 19.8756H11.5955C11.2738 19.8756 11.0278 19.6296 11.0278 19.3079C11.0278 18.9862 11.2738 18.7402 11.5955 18.7402H12.1632V19.8756Z" fill="white"/>
<path d="M12.6922 19.8756H12.1245V18.7402H13.2599V19.3079C13.2599 19.6296 13.0139 19.8756 12.6922 19.8756Z" fill="white"/>
<path d="M20.9786 19.8756H19.8433V19.3079C19.8433 18.9862 20.0893 18.7402 20.4109 18.7402C20.7326 18.7402 20.9786 18.9862 20.9786 19.3079V19.8756Z" fill="white"/>
<path d="M22.6131 19.8756C22.9266 19.8756 23.1808 19.6214 23.1808 19.3079C23.1808 18.9944 22.9266 18.7402 22.6131 18.7402C22.2996 18.7402 22.0454 18.9944 22.0454 19.3079C22.0454 19.6214 22.2996 19.8756 22.6131 19.8756Z" fill="white"/>
<path d="M25.3888 19.8756H24.2534V19.3079C24.2534 18.9862 24.4994 18.7402 24.8211 18.7402H25.3888V19.8756Z" fill="white"/>
<path d="M26.4903 18.7402H25.355V19.8756H26.4903V18.7402Z" fill="white"/>
<path d="M27.0193 19.8756H26.4517V18.7402H27.0193C27.341 18.7402 27.587 18.9862 27.587 19.3079C27.587 19.6296 27.341 19.8756 27.0193 19.8756Z" fill="white"/>
<path d="M29.795 18.7402H28.6597V19.8756H29.795V18.7402Z" fill="white"/>
<path d="M30.8995 18.7402H29.7642V19.8756H30.8995V18.7402Z" fill="white"/>
<path d="M31.4314 19.8756H30.8638V18.7402H31.9991V19.3079C31.9991 19.6296 31.7531 19.8756 31.4314 19.8756Z" fill="white"/>
<path d="M1.13584 19.8418H0.000488281V20.9771H1.13584V19.8418Z" fill="white"/>
<path d="M3.34189 20.9771H2.20654V20.4095C2.20654 20.0878 2.45254 19.8418 2.77422 19.8418H3.34189V20.9771Z" fill="white"/>
<path d="M4.44346 19.8418H3.30811V20.9771H4.44346V19.8418Z" fill="white"/>
<path d="M5.54697 19.8418H4.41162V20.9771H5.54697V19.8418Z" fill="white"/>
<path d="M6.64463 19.8418H5.50928V20.9771H6.64463V19.8418Z" fill="white"/>
<path d="M7.74863 19.8418H6.61328V20.9771H7.74863V19.8418Z" fill="white"/>
<path d="M8.85361 19.8418H7.71826V20.9771H8.85361V19.8418Z" fill="white"/>
<path d="M9.95127 19.8418H8.81592V20.9771H9.95127V19.8418Z" fill="white"/>
<path d="M10.491 20.9771H9.92334V19.8418H10.491C10.8127 19.8418 11.0587 20.0878 11.0587 20.4095C11.0587 20.7312 10.8127 20.9771 10.491 20.9771Z" fill="white"/>
<path d="M14.3653 20.9771H13.7977C13.476 20.9771 13.23 20.7312 13.23 20.4095C13.23 20.0878 13.476 19.8418 13.7977 19.8418H14.3653V20.9771Z" fill="white"/>
<path d="M15.4669 20.9771H14.3315V19.8418H14.8992C15.2209 19.8418 15.4669 20.0878 15.4669 20.4095V20.9771Z" fill="white"/>
<path d="M20.4109 20.9771C20.0893 20.9771 19.8433 20.7312 19.8433 20.4095V19.8418H20.9786V20.4095C20.9786 20.7312 20.7326 20.9771 20.4109 20.9771Z" fill="white"/>
<path d="M25.3888 19.8418H24.2534V20.9771H25.3888V19.8418Z" fill="white"/>
<path d="M28.6915 20.9771H28.1238C27.8021 20.9771 27.5562 20.7312 27.5562 20.4095C27.5562 20.0878 27.8021 19.8418 28.1238 19.8418H28.6915V20.9771Z" fill="white"/>
<path d="M29.2273 20.9771H28.6597V19.8418H29.795V20.4095C29.795 20.7312 29.549 20.9771 29.2273 20.9771Z" fill="white"/>
<path d="M1.13584 20.9434H0.000488281V22.0787H1.13584V20.9434Z" fill="white"/>
<path d="M3.34189 20.9434H2.20654V22.0787H3.34189V20.9434Z" fill="white"/>
<path d="M4.44346 20.9434H3.30811V22.0787H4.44346V20.9434Z" fill="white"/>
<path d="M4.9793 22.0787H4.41162V20.9434H5.54697V21.511C5.54697 21.8327 5.30098 22.0787 4.9793 22.0787Z" fill="white"/>
<path d="M8.85361 20.9434H7.71826V22.0787H8.85361V20.9434Z" fill="white"/>
<path d="M9.95127 20.9434H8.81592V22.0787H9.95127V20.9434Z" fill="white"/>
<path d="M12.1632 22.0787H11.5955C11.2738 22.0787 11.0278 21.8327 11.0278 21.511C11.0278 21.1894 11.2738 20.9434 11.5955 20.9434H12.1632V22.0787Z" fill="white"/>
<path d="M12.6922 22.0787H12.1245V20.9434H12.6922C13.0139 20.9434 13.2599 21.1894 13.2599 21.511C13.2599 21.8327 13.0139 22.0787 12.6922 22.0787Z" fill="white"/>
<path d="M15.4669 22.0787H14.8992C14.5775 22.0787 14.3315 21.8327 14.3315 21.511V20.9434H15.4669V22.0787Z" fill="white"/>
<path d="M16.5694 20.9434H15.4341V22.0787H16.5694V20.9434Z" fill="white"/>
<path d="M17.669 20.9434H16.5337V22.0787H17.669V20.9434Z" fill="white"/>
<path d="M18.7735 22.0787H17.6382V20.9434H18.2059C18.5275 20.9434 18.7735 21.1894 18.7735 21.511V22.0787Z" fill="white"/>
<path d="M25.3888 20.9434H24.2534V22.0787H25.3888V20.9434Z" fill="white"/>
<path d="M26.4903 22.0787H25.355V20.9434H25.9227C26.2443 20.9434 26.4903 21.1894 26.4903 21.511V22.0787Z" fill="white"/>
<path d="M30.8995 22.0787H30.3318C30.0102 22.0787 29.7642 21.8327 29.7642 21.511C29.7642 21.1894 30.0102 20.9434 30.3318 20.9434H30.8995V22.0787Z" fill="white"/>
<path d="M31.4314 22.0787H30.8638V20.9434H31.4314C31.7531 20.9434 31.9991 21.1894 31.9991 21.511C31.9991 21.8327 31.7531 22.0787 31.4314 22.0787Z" fill="white"/>
<path d="M0.568164 23.1803C0.246481 23.1803 0.000488281 22.9343 0.000488281 22.6126V22.0449H1.13584V22.6126C1.13584 22.9343 0.889847 23.1803 0.568164 23.1803Z" fill="white"/>
<path d="M3.34189 23.1822H2.77422C2.45254 23.1822 2.20654 22.9362 2.20654 22.6146V22.0469H3.34189V23.1822Z" fill="white"/>
<path d="M3.87578 23.1822H3.30811V22.0469H4.44346V22.6146C4.44346 22.9362 4.19746 23.1822 3.87578 23.1822Z" fill="white"/>
<path d="M6.64463 23.1803H6.07695C5.75527 23.1803 5.50928 22.9343 5.50928 22.6126C5.50928 22.2909 5.75527 22.0449 6.07695 22.0449H6.64463V23.1803Z" fill="white"/>
<path d="M7.74863 22.0469H6.61328V23.1822H7.74863V22.0469Z" fill="white"/>
<path d="M8.85361 22.0469H7.71826V23.1822H8.85361V22.0469Z" fill="white"/>
<path d="M9.95127 22.0469H8.81592V23.1822H9.95127V22.0469Z" fill="white"/>
<path d="M14.3653 23.1822H13.23V22.6146C13.23 22.2929 13.476 22.0469 13.7977 22.0469C14.1193 22.0469 14.3653 22.2929 14.3653 22.6146V23.1822Z" fill="white"/>
<path d="M16.5694 22.0469H15.4341V23.1822H16.5694V22.0469Z" fill="white"/>
<path d="M18.2059 23.1822C17.8842 23.1822 17.6382 22.9362 17.6382 22.6146V22.0469H18.7735V22.6146C18.7735 22.9362 18.5275 23.1822 18.2059 23.1822Z" fill="white"/>
<path d="M22.0841 23.1822H20.9487V22.6146C20.9487 22.2929 21.1947 22.0469 21.5164 22.0469H22.0841V23.1822Z" fill="white"/>
<path d="M23.1808 22.0469H22.0454V23.1822H23.1808V22.0469Z" fill="white"/>
<path d="M24.2853 22.0469H23.1499V23.1822H24.2853V22.0469Z" fill="white"/>
<path d="M25.3888 22.0469H24.2534V23.1822H25.3888V22.0469Z" fill="white"/>
<path d="M26.4903 22.0469H25.355V23.1822H26.4903V22.0469Z" fill="white"/>
<path d="M27.587 23.1822H26.4517V22.0469H27.0193C27.341 22.0469 27.587 22.2929 27.587 22.6146V23.1822Z" fill="white"/>
<path d="M29.2273 23.1822C29.5409 23.1822 29.795 22.9281 29.795 22.6146C29.795 22.301 29.5409 22.0469 29.2273 22.0469C28.9138 22.0469 28.6597 22.301 28.6597 22.6146C28.6597 22.9281 28.9138 23.1822 29.2273 23.1822Z" fill="white"/>
<path d="M9.38359 24.2838C9.06191 24.2838 8.81592 24.0378 8.81592 23.7161V23.1484H9.95127V23.7161C9.95127 24.0378 9.70528 24.2838 9.38359 24.2838Z" fill="white"/>
<path d="M12.1632 24.2838H11.0278V23.7161C11.0278 23.3944 11.2738 23.1484 11.5955 23.1484H12.1632V24.2838Z" fill="white"/>
<path d="M13.2599 23.1484H12.1245V24.2838H13.2599V23.1484Z" fill="white"/>
<path d="M14.3653 23.1484H13.23V24.2838H14.3653V23.1484Z" fill="white"/>
<path d="M15.4669 23.1484H14.3315V24.2838H15.4669V23.1484Z" fill="white"/>
<path d="M16.5694 23.1484H15.4341V24.2838H16.5694V23.1484Z" fill="white"/>
<path d="M17.669 24.2838H16.5337V23.1484H17.1014C17.423 23.1484 17.669 23.3944 17.669 23.7161V24.2838Z" fill="white"/>
<path d="M20.9786 24.2838H19.8433V23.7161C19.8433 23.3944 20.0893 23.1484 20.4109 23.1484H20.9786V24.2838Z" fill="white"/>
<path d="M22.0841 23.1484H20.9487V24.2838H22.0841V23.1484Z" fill="white"/>
<path d="M23.1808 23.1484H22.0454V24.2838H23.1808V23.1484Z" fill="white"/>
<path d="M27.587 23.1484H26.4517V24.2838H27.587V23.1484Z" fill="white"/>
<path d="M28.1238 24.2838H27.5562V23.1484H28.1238C28.4455 23.1484 28.6915 23.3944 28.6915 23.7161C28.6915 24.0378 28.4455 24.2838 28.1238 24.2838Z" fill="white"/>
<path d="M30.8995 24.2838H30.3318C30.0102 24.2838 29.7642 24.0378 29.7642 23.7161C29.7642 23.3944 30.0102 23.1484 30.3318 23.1484H30.8995V24.2838Z" fill="white"/>
<path d="M31.4314 24.2838H30.8638V23.1484H31.4314C31.7531 23.1484 31.9991 23.3944 31.9991 23.7161C31.9991 24.0378 31.7531 24.2838 31.4314 24.2838Z" fill="white"/>
<path d="M11.0587 25.3854H9.92334V24.8177C9.92334 24.496 10.1693 24.25 10.491 24.25H11.0587V25.3854Z" fill="white"/>
<path d="M12.1632 24.25H11.0278V25.3854H12.1632V24.25Z" fill="white"/>
<path d="M12.6922 25.3854H12.1245V24.25H13.2599V24.8177C13.2599 25.1394 13.0139 25.3854 12.6922 25.3854Z" fill="white"/>
<path d="M17.669 24.25H16.5337V25.3854H17.669V24.25Z" fill="white"/>
<path d="M19.8741 25.3854H18.7388V24.8177C18.7388 24.496 18.9848 24.25 19.3064 24.25H19.8741V25.3854Z" fill="white"/>
<path d="M20.9786 24.25H19.8433V25.3854H20.9786V24.25Z" fill="white"/>
<path d="M22.0841 24.25H20.9487V25.3854H22.0841V24.25Z" fill="white"/>
<path d="M23.1808 24.25H22.0454V25.3854H23.1808V24.25Z" fill="white"/>
<path d="M24.8211 25.3854C25.1346 25.3854 25.3888 25.1312 25.3888 24.8177C25.3888 24.5042 25.1346 24.25 24.8211 24.25C24.5076 24.25 24.2534 24.5042 24.2534 24.8177C24.2534 25.1312 24.5076 25.3854 24.8211 25.3854Z" fill="white"/>
<path d="M27.587 24.25H26.4517V25.3854H27.587V24.25Z" fill="white"/>
<path d="M11.0587 25.3516H9.92334V26.4869H11.0587V25.3516Z" fill="white"/>
<path d="M16.5694 26.4869H16.0018C15.6801 26.4869 15.4341 26.2409 15.4341 25.9192C15.4341 25.5976 15.6801 25.3516 16.0018 25.3516H16.5694V26.4869Z" fill="white"/>
<path d="M17.669 25.3516H16.5337V26.4869H17.669V25.3516Z" fill="white"/>
<path d="M19.8741 25.3516H18.7388V26.4869H19.8741V25.3516Z" fill="white"/>
<path d="M22.0841 26.4869H21.5164C21.1947 26.4869 20.9487 26.2409 20.9487 25.9192V25.3516H22.0841V26.4869Z" fill="white"/>
<path d="M23.1808 25.3516H22.0454V26.4869H23.1808V25.3516Z" fill="white"/>
<path d="M27.587 25.3516H26.4517V26.4869H27.587V25.3516Z" fill="white"/>
<path d="M28.6915 26.4869H27.5562V25.3516H28.1238C28.4455 25.3516 28.6915 25.5976 28.6915 25.9192V26.4869Z" fill="white"/>
<path d="M30.3318 26.4869C30.6454 26.4869 30.8995 26.2328 30.8995 25.9192C30.8995 25.6057 30.6454 25.3516 30.3318 25.3516C30.0183 25.3516 29.7642 25.6057 29.7642 25.9192C29.7642 26.2328 30.0183 26.4869 30.3318 26.4869Z" fill="white"/>
<path d="M9.95127 27.5904H8.81592V27.0228C8.81592 26.7011 9.06191 26.4551 9.38359 26.4551H9.95127V27.5904Z" fill="white"/>
<path d="M11.0587 26.457H9.92334V27.5924H11.0587V26.457Z" fill="white"/>
<path d="M14.3653 27.5924H13.7977C13.476 27.5924 13.23 27.3464 13.23 27.0247C13.23 26.703 13.476 26.457 13.7977 26.457H14.3653V27.5924Z" fill="white"/>
<path d="M14.8992 27.5924H14.3315V26.457H14.8992C15.2209 26.457 15.4669 26.703 15.4669 27.0247C15.4669 27.3464 15.2209 27.5924 14.8992 27.5924Z" fill="white"/>
<path d="M17.669 26.457H16.5337V27.5924H17.669V26.457Z" fill="white"/>
<path d="M19.3064 27.5924C18.9848 27.5924 18.7388 27.3464 18.7388 27.0247V26.457H19.8741V27.0247C19.8741 27.3464 19.6281 27.5924 19.3064 27.5924Z" fill="white"/>
<path d="M23.1808 26.457H22.0454V27.5924H23.1808V26.457Z" fill="white"/>
<path d="M24.2853 26.457H23.1499V27.5924H24.2853V26.457Z" fill="white"/>
<path d="M25.3888 26.4551H24.2534V27.5904H25.3888V26.4551Z" fill="white"/>
<path d="M26.4903 26.457H25.355V27.5924H26.4903V26.457Z" fill="white"/>
<path d="M27.587 26.457H26.4517V27.5924H27.587V26.457Z" fill="white"/>
<path d="M28.6915 26.4551H27.5562V27.5904H28.6915V26.4551Z" fill="white"/>
<path d="M29.795 27.5924H28.6597V26.457H29.2273C29.549 26.457 29.795 26.703 29.795 27.0247V27.5924Z" fill="white"/>
<path d="M31.4314 27.5924C31.745 27.5924 31.9991 27.3382 31.9991 27.0247C31.9991 26.7112 31.745 26.457 31.4314 26.457C31.1179 26.457 30.8638 26.7112 30.8638 27.0247C30.8638 27.3382 31.1179 27.5924 31.4314 27.5924Z" fill="white"/>
<path d="M9.95127 27.5586H8.81592V28.6939H9.95127V27.5586Z" fill="white"/>
<path d="M11.0587 27.5586H9.92334V28.6939H11.0587V27.5586Z" fill="white"/>
<path d="M11.5955 28.6939H11.0278V27.5586H11.5955C11.9172 27.5586 12.1632 27.8046 12.1632 28.1263C12.1632 28.448 11.9172 28.6939 11.5955 28.6939Z" fill="white"/>
<path d="M17.669 27.5586H16.5337V28.6939H17.669V27.5586Z" fill="white"/>
<path d="M18.7735 28.6939H17.6382V27.5586H18.2059C18.5275 27.5586 18.7735 27.8046 18.7735 28.1263V28.6939Z" fill="white"/>
<path d="M20.9786 28.6939H19.8433V28.1263C19.8433 27.8046 20.0893 27.5586 20.4109 27.5586H20.9786V28.6939Z" fill="white"/>
<path d="M22.0841 27.5586H20.9487V28.6939H22.0841V27.5586Z" fill="white"/>
<path d="M23.1808 27.5586H22.0454V28.6939H23.1808V27.5586Z" fill="white"/>
<path d="M24.2853 27.5586H23.1499V28.6939H24.2853V27.5586Z" fill="white"/>
<path d="M26.4903 27.5586H25.355V28.6939H26.4903V27.5586Z" fill="white"/>
<path d="M28.6915 27.5586H27.5562V28.6939H28.6915V27.5586Z" fill="white"/>
<path d="M29.795 27.5586H28.6597V28.6939H29.795V27.5586Z" fill="white"/>
<path d="M9.95127 29.7955H9.38359C9.06191 29.7955 8.81592 29.5495 8.81592 29.2278V28.6602H9.95127V29.7955Z" fill="white"/>
<path d="M10.491 29.7955H9.92334V28.6602H11.0587V29.2278C11.0587 29.5495 10.8127 29.7955 10.491 29.7955Z" fill="white"/>
<path d="M14.3653 29.7955H13.23V29.2278C13.23 28.9061 13.476 28.6602 13.7977 28.6602C14.1193 28.6602 14.3653 28.9061 14.3653 29.2278V29.7955Z" fill="white"/>
<path d="M16.5694 29.7955H15.4341V29.2278C15.4341 28.9061 15.6801 28.6602 16.0018 28.6602H16.5694V29.7955Z" fill="white"/>
<path d="M17.669 28.6602H16.5337V29.7955H17.669V28.6602Z" fill="white"/>
<path d="M18.7735 28.6602H17.6382V29.7955H18.7735V28.6602Z" fill="white"/>
<path d="M20.9786 29.7955H20.4109C20.0893 29.7955 19.8433 29.5495 19.8433 29.2278V28.6602H20.9786V29.7955Z" fill="white"/>
<path d="M22.0841 28.6602H20.9487V29.7955H22.0841V28.6602Z" fill="white"/>
<path d="M23.1808 28.6602H22.0454V29.7955H23.1808V28.6602Z" fill="white"/>
<path d="M24.2853 28.6602H23.1499V29.7955H24.2853V28.6602Z" fill="white"/>
<path d="M25.3888 28.6602H24.2534V29.7955H25.3888V28.6602Z" fill="white"/>
<path d="M26.4903 28.6602H25.355V29.7955H26.4903V28.6602Z" fill="white"/>
<path d="M27.587 28.6602H26.4517V29.7955H27.587V28.6602Z" fill="white"/>
<path d="M28.6915 28.6602H27.5562V29.7955H28.6915V28.6602Z" fill="white"/>
<path d="M29.795 28.6602H28.6597V29.7955H29.795V28.6602Z" fill="white"/>
<path d="M30.8995 29.7955H29.7642V28.6602H30.3318C30.6535 28.6602 30.8995 28.9061 30.8995 29.2278V29.7955Z" fill="white"/>
<path d="M12.1632 30.8971H11.0278V30.3294C11.0278 30.0077 11.2738 29.7617 11.5955 29.7617H12.1632V30.8971Z" fill="white"/>
<path d="M13.2599 29.7617H12.1245V30.8971H13.2599V29.7617Z" fill="white"/>
<path d="M14.3653 29.7617H13.23V30.8971H14.3653V29.7617Z" fill="white"/>
<path d="M15.4669 29.7617H14.3315V30.8971H15.4669V29.7617Z" fill="white"/>
<path d="M16.0018 30.8971H15.4341V29.7617H16.5694V30.3294C16.5694 30.6511 16.3234 30.8971 16.0018 30.8971Z" fill="white"/>
<path d="M18.7735 29.7617H17.6382V30.8971H18.7735V29.7617Z" fill="white"/>
<path d="M22.0841 30.8971H21.5164C21.1947 30.8971 20.9487 30.6511 20.9487 30.3294V29.7617H22.0841V30.8971Z" fill="white"/>
<path d="M23.1808 29.7617H22.0454V30.8971H23.1808V29.7617Z" fill="white"/>
<path d="M24.2853 29.7617H23.1499V30.8971H24.2853V29.7617Z" fill="white"/>
<path d="M24.8211 30.8971H24.2534V29.7617H25.3888V30.3294C25.3888 30.6511 25.1428 30.8971 24.8211 30.8971Z" fill="white"/>
<path d="M27.587 29.7617H26.4517V30.8971H27.587V29.7617Z" fill="white"/>
<path d="M28.1238 30.8971H27.5562V29.7617H28.6915V30.3294C28.6915 30.6511 28.4455 30.8971 28.1238 30.8971Z" fill="white"/>
<path d="M30.3318 30.8971C30.0102 30.8971 29.7642 30.6511 29.7642 30.3294V29.7617H30.8995V30.3294C30.8995 30.6511 30.6535 30.8971 30.3318 30.8971Z" fill="white"/>
<path d="M11.5955 32.0006C11.2738 32.0006 11.0278 31.7546 11.0278 31.4329V30.8652H12.1632V31.4329C12.1632 31.7546 11.9172 32.0006 11.5955 32.0006Z" fill="white"/>
<path d="M17.669 32.0006H17.1014C16.7797 32.0006 16.5337 31.7546 16.5337 31.4329C16.5337 31.1112 16.7797 30.8652 17.1014 30.8652H17.669V32.0006Z" fill="white"/>
<path d="M18.7735 30.8652H17.6382V32.0006H18.7735V30.8652Z" fill="white"/>
<path d="M19.3064 32.0006H18.7388V30.8652H19.3064C19.6281 30.8652 19.8741 31.1112 19.8741 31.4329C19.8741 31.7546 19.6281 32.0006 19.3064 32.0006Z" fill="white"/>
<path d="M27.0193 32.0006C26.6977 32.0006 26.4517 31.7546 26.4517 31.4329V30.8652H27.587V31.4329C27.587 31.7546 27.341 32.0006 27.0193 32.0006Z" fill="white"/>
<path d="M2.48014 7.71598H5.29096C6.6137 7.71598 7.71598 6.6137 7.71598 5.29096V2.48014C7.71598 1.10228 6.6137 0 5.23584 0H2.42502C1.10228 0 0 1.10228 0 2.42502V5.23584C0 6.6137 1.10228 7.71598 2.48014 7.71598ZM6.6137 2.64548V5.0705C6.6137 5.89721 5.89721 6.6137 5.0705 6.6137H2.64548C1.76365 6.6137 1.10228 5.95233 1.10228 5.0705V2.64548C1.10228 1.81877 1.81877 1.10228 2.64548 1.10228H5.0705C5.95233 1.10228 6.6137 1.76365 6.6137 2.64548Z" fill="white"/>
<path d="M26.7326 7.71598H29.5434C30.8661 7.71598 31.9684 6.6137 31.9684 5.29096V2.48014C31.9684 1.10228 30.8661 0 29.4883 0H26.6775C25.3547 0 24.2524 1.10228 24.2524 2.42502V5.23584C24.2524 6.6137 25.3547 7.71598 26.7326 7.71598ZM30.8661 2.64548V5.0705C30.8661 5.89721 30.1497 6.6137 29.3229 6.6137H26.8979C26.0161 6.6137 25.3547 5.95233 25.3547 5.0705V2.64548C25.3547 1.81877 26.0712 1.10228 26.8979 1.10228H29.3229C30.2048 1.10228 30.8661 1.76365 30.8661 2.64548Z" fill="white"/>
<path d="M2.48014 31.966H5.29096C6.6137 31.966 7.71598 30.8637 7.71598 29.541V26.7301C7.71598 25.3523 6.6137 24.25 5.23584 24.25H2.42502C1.10228 24.25 0 25.3523 0 26.675V29.4858C0 30.8637 1.10228 31.966 2.48014 31.966ZM6.6137 26.8955V29.3205C6.6137 30.1472 5.89721 30.8637 5.0705 30.8637H2.64548C1.76365 30.8637 1.10228 30.2023 1.10228 29.3205V26.8955C1.10228 26.0688 1.81877 25.3523 2.64548 25.3523H5.0705C5.95233 25.3523 6.6137 26.0137 6.6137 26.8955Z" fill="white"/>
<path d="M5.51339 2.20508H2.20654V5.51193H5.51339V2.20508Z" fill="white"/>
<path d="M29.758 2.20508H26.4512V5.51193H29.758V2.20508Z" fill="white"/>
<path d="M5.51339 26.457H2.20654V29.7639H5.51339V26.457Z" fill="white"/>
</svg>
